<?xml version="1.0" encoding="UTF-8" standalone="no"?>
<!-- Created with matplotlib (http://matplotlib.org/) -->

<svg
   xmlns:dc="http://purl.org/dc/elements/1.1/"
   xmlns:cc="http://creativecommons.org/ns#"
   xmlns:rdf="http://www.w3.org/1999/02/22-rdf-syntax-ns#"
   xmlns:svg="http://www.w3.org/2000/svg"
   xmlns="http://www.w3.org/2000/svg"
   xmlns:xlink="http://www.w3.org/1999/xlink"
   xmlns:sodipodi="http://sodipodi.sourceforge.net/DTD/sodipodi-0.dtd"
   xmlns:inkscape="http://www.inkscape.org/namespaces/inkscape"
   height="432pt"
   version="1.1"
   viewBox="0 0 576 432"
   width="576pt"
   id="svg2"
   inkscape:version="0.48.4 r9939"
   sodipodi:docname="coin_distance_w_semicircle.svg">
  <metadata
     id="metadata401">
    <rdf:RDF>
      <cc:Work
         rdf:about="">
        <dc:format>image/svg+xml</dc:format>
        <dc:type
           rdf:resource="http://purl.org/dc/dcmitype/StillImage" />
        <dc:title></dc:title>
      </cc:Work>
    </rdf:RDF>
  </metadata>
  <sodipodi:namedview
     pagecolor="#c1c1c1"
     bordercolor="#666666"
     borderopacity="1"
     objecttolerance="10"
     gridtolerance="10"
     guidetolerance="10"
     inkscape:pageopacity="1"
     inkscape:pageshadow="2"
     inkscape:window-width="1920"
     inkscape:window-height="1058"
     id="namedview399"
     showgrid="false"
     inkscape:zoom="1.2361274"
     inkscape:cx="65.562625"
     inkscape:cy="210.16072"
     inkscape:window-x="0"
     inkscape:window-y="0"
     inkscape:window-maximized="1"
     inkscape:current-layer="line2d_18" />
  <defs
     id="defs4">
    <style
       type="text/css"
       id="style6">
*{stroke-linecap:butt;stroke-linejoin:round;stroke-miterlimit:100000;}
  </style>
    <marker
       style="overflow:visible"
       id="Arrow1Mstartn"
       refX="0"
       refY="0"
       orient="auto"
       inkscape:stockid="Arrow1Mstartn">
      <path
         transform="matrix(0.4,0,0,0.4,4,0)"
         style="fill:#ffffff;fill-rule:evenodd;stroke:#ffffff;stroke-width:1pt"
         d="M 0,0 5,-5 -12.5,0 5,5 0,0 z"
         id="path4055"
         inkscape:connector-curvature="0" />
    </marker>
    <marker
       style="overflow:visible"
       id="Arrow1Mendu"
       refX="0"
       refY="0"
       orient="auto"
       inkscape:stockid="Arrow1Mendu">
      <path
         transform="matrix(-0.4,0,0,-0.4,-4,0)"
         style="fill:#ffffff;fill-rule:evenodd;stroke:#ffffff;stroke-width:1pt"
         d="M 0,0 5,-5 -12.5,0 5,5 0,0 z"
         id="path4058"
         inkscape:connector-curvature="0" />
    </marker>
  </defs>
  <g
     id="figure_1">
    <g
       id="patch_1">
      <path
         d="M 0 432  L 576 432  L 576 0  L 0 0  L 0 432  z "
         style="fill:none;"
         id="path10" />
    </g>
    <g
       id="axes_1">
      <g
         id="patch_2">
        <path
           d="M 29.785 337.111836  L 557.098594 337.111836  L 557.098594 73.455039  L 29.785 73.455039  L 29.785 337.111836  z "
           style="fill:none;"
           id="path14" />
      </g>
      <g
         id="line2d_1">
        <path
           clip-path="url(#p6c76e59686)"
           d="M 29.785 337.111836  L 33.904637 290.68588  L 38.024275 271.714619  L 42.143912 257.3354  L 46.26355 245.363154  L 50.383187 234.948149  L 54.502825 225.652991  L 58.622462 217.216938  L 62.7421 209.469538  L 66.861737 202.292019  L 70.981375 195.597642  L 75.101012 189.32074  L 79.220649 183.410156  L 83.340287 177.825107  L 87.459924 172.532449  L 91.579562 167.504806  L 95.699199 162.719257  L 99.818837 158.156378  L 103.938474 153.799542  L 108.058112 149.634382  L 112.177749 145.648389  L 116.297386 141.830592  L 120.417024 138.171306  L 128.656299 131.294815  L 136.895574 124.960507  L 145.134849 119.121112  L 153.374124 113.737815  L 161.613398 108.778352  L 169.852673 104.215646  L 178.091948 100.02679  L 186.331223 96.192282  L 194.570498 92.695444  L 202.809773 89.521968  L 211.049048 86.659562  L 219.288323 84.097669  L 227.527598 81.82724  L 235.766873 79.84056  L 244.006147 78.131097  L 252.245422 76.693393  L 260.484697 75.522967  L 268.723972 74.616244  L 276.963247 73.970498  L 285.202522 73.583809  L 293.441797 73.455039  L 301.681072 73.583809  L 309.920347 73.970498  L 318.159622 74.616244  L 326.398896 75.522967  L 334.638171 76.693393  L 342.877446 78.131097  L 351.116721 79.84056  L 359.355996 81.82724  L 367.595271 84.097669  L 375.834546 86.659562  L 384.073821 89.521968  L 392.313096 92.695444  L 400.552371 96.192282  L 408.791646 100.02679  L 417.03092 104.215646  L 425.270195 108.778352  L 433.50947 113.737815  L 441.748745 119.121112  L 449.98802 124.960507  L 458.227295 131.294815  L 466.46657 138.171306  L 470.586207 141.830592  L 474.705845 145.648389  L 478.825482 149.634382  L 482.94512 153.799542  L 487.064757 158.156378  L 491.184395 162.719257  L 495.304032 167.504806  L 499.423669 172.532449  L 503.543307 177.825107  L 507.662944 183.410156  L 511.782582 189.32074  L 515.902219 195.597642  L 520.021857 202.292019  L 524.141494 209.469538  L 528.261132 217.216938  L 532.380769 225.652991  L 536.500406 234.948149  L 540.620044 245.363154  L 544.739681 257.3354  L 548.859319 271.714619  L 552.978956 290.68588  L 557.098594 337.111836  L 557.098594 337.111836  "
           style="fill:none;stroke:#ffffff;stroke-linecap:square;stroke-width:2.0;"
           id="path17" />
      </g>
      <g
         id="line2d_2">
        <defs
           id="defs22">
          <path
             d="M 0 8  C 2.121625 8 4.156639 7.15707 5.656854 5.656854  C 7.15707 4.156639 8 2.121625 8 0  C 8 -2.121625 7.15707 -4.156639 5.656854 -5.656854  C 4.156639 -7.15707 2.121625 -8 0 -8  C -2.121625 -8 -4.156639 -7.15707 -5.656854 -5.656854  C -7.15707 -4.156639 -8 -2.121625 -8 0  C -8 2.121625 -7.15707 4.156639 -5.656854 5.656854  C -4.156639 7.15707 -2.121625 8 0 8  z "
             id="m2b691dd5c1"
             style="stroke:#000000;stroke-width:0.5;" />
        </defs>
        <g
           clip-path="url(#p6c76e59686)"
           id="g25">
          <use
             style="fill:#f77189;stroke:#000000;stroke-width:0.5;"
             x="42.6892821415"
             xlink:href="#m2b691dd5c1"
             y="337.111835938"
             id="use27" />
          <use
             style="fill:#f77189;stroke:#000000;stroke-width:0.5;"
             x="42.6892821415"
             xlink:href="#m2b691dd5c1"
             y="255.637405021"
             id="use29" />
        </g>
      </g>
      <g
         id="line2d_3">
        <path
           clip-path="url(#p6c76e59686)"
           d="M 29.785 314.992591  L 33.904637 266.087809  L 38.024275 223.974995  L 42.143912 217.911256  L 46.26355 243.667406  L 50.383187 278.977847  L 54.502825 307.216116  L 58.622462 324.041227  L 62.7421 332.152583  L 66.861737 335.453089  L 70.981375 336.616669  L 75.101012 336.978586  L 83.340287 337.104541  L 165.733036 337.111836  L 557.098594 337.111836  L 557.098594 337.111836  "
           style="fill:none;stroke:#f77189;stroke-linecap:square;stroke-width:2.0;"
           id="path32" />
      </g>
      <g
         id="line2d_4">
        <defs
           id="defs37">
          <path
             d="M 0 8  C 2.121625 8 4.156639 7.15707 5.656854 5.656854  C 7.15707 4.156639 8 2.121625 8 0  C 8 -2.121625 7.15707 -4.156639 5.656854 -5.656854  C 4.156639 -7.15707 2.121625 -8 0 -8  C -2.121625 -8 -4.156639 -7.15707 -5.656854 -5.656854  C -7.15707 -4.156639 -8 -2.121625 -8 0  C -8 2.121625 -7.15707 4.156639 -5.656854 5.656854  C -4.156639 7.15707 -2.121625 8 0 8  z "
             id="m44de2b253c"
             style="stroke:#000000;stroke-width:0.5;" />
        </defs>
        <g
           clip-path="url(#p6c76e59686)"
           id="g40">
          <use
             style="fill:#d58c32;stroke:#000000;stroke-width:0.5;"
             x="80.1389675207"
             xlink:href="#m44de2b253c"
             y="337.111835938"
             id="use42" />
          <use
             style="fill:#d58c32;stroke:#000000;stroke-width:0.5;"
             x="80.1389675207"
             xlink:href="#m44de2b253c"
             y="182.138259068"
             id="use44" />
        </g>
      </g>
      <g
         id="line2d_5">
        <path
           clip-path="url(#p6c76e59686)"
           d="M 29.785 337.110446  L 38.024275 336.98595  L 42.143912 336.553652  L 46.26355 335.270302  L 50.383187 332.290323  L 54.502825 326.676911  L 58.622462 317.911749  L 62.7421 306.453354  L 66.861737 293.955809  L 70.981375 282.89421  L 75.101012 275.709924  L 79.220649 273.908705  L 83.340287 277.572319  L 87.459924 285.478857  L 91.579562 295.683942  L 95.699199 306.222868  L 99.818837 315.62737  L 103.938474 323.124754  L 108.058112 328.562778  L 112.177749 332.192949  L 116.297386 334.441146  L 120.417024 335.740523  L 124.536661 336.44462  L 128.656299 336.803661  L 136.895574 337.05523  L 153.374124 337.110746  L 557.098594 337.111836  L 557.098594 337.111836  "
           style="fill:none;stroke:#d58c32;stroke-linecap:square;stroke-width:2.0;"
           id="path47" />
      </g>
      <g
         id="line2d_6">
        <defs
           id="defs52">
          <path
             d="M 0 8  C 2.121625 8 4.156639 7.15707 5.656854 5.656854  C 7.15707 4.156639 8 2.121625 8 0  C 8 -2.121625 7.15707 -4.156639 5.656854 -5.656854  C 4.156639 -7.15707 2.121625 -8 0 -8  C -2.121625 -8 -4.156639 -7.15707 -5.656854 -5.656854  C -7.15707 -4.156639 -8 -2.121625 -8 0  C -8 2.121625 -7.15707 4.156639 -5.656854 5.656854  C -4.156639 7.15707 -2.121625 8 0 8  z "
             id="md7796d826d"
             style="stroke:#000000;stroke-width:0.5;" />
        </defs>
        <g
           clip-path="url(#p6c76e59686)"
           id="g55">
          <use
             style="fill:#a4a031;stroke:#000000;stroke-width:0.5;"
             x="138.468220005"
             xlink:href="#md7796d826d"
             y="337.111835938"
             id="use57" />
          <use
             style="fill:#a4a031;stroke:#000000;stroke-width:0.5;"
             x="138.468220005"
             xlink:href="#md7796d826d"
             y="123.809006583"
             id="use59" />
        </g>
      </g>
      <g
         id="line2d_7">
        <path
           clip-path="url(#p6c76e59686)"
           d="M 29.785 337.111836  L 75.101012 337.043375  L 79.220649 336.938543  L 83.340287 336.710389  L 87.459924 336.255726  L 91.579562 335.422659  L 95.699199 334.014664  L 99.818837 331.814394  L 103.938474 328.630809  L 108.058112 324.364505  L 112.177749 319.075532  L 116.297386 313.030324  L 120.417024 306.704623  L 124.536661 300.72985  L 128.656299 295.788419  L 132.775936 292.482408  L 136.895574 291.211385  L 141.015211 292.093947  L 145.134849 294.953814  L 149.254486 299.370785  L 153.374124 304.777817  L 161.613398 316.228044  L 165.733036 321.339413  L 169.852673 325.670549  L 173.972311 329.134343  L 178.091948 331.76153  L 182.211586 333.658041  L 186.331223 334.964569  L 190.450861 335.825378  L 194.570498 336.368718  L 198.690135 336.697752  L 206.92941 336.996211  L 219.288323 337.098672  L 289.322159 337.111836  L 557.098594 337.111836  L 557.098594 337.111836  "
           style="fill:none;stroke:#a4a031;stroke-linecap:square;stroke-width:2.0;"
           id="path62" />
      </g>
      <g
         id="line2d_8">
        <defs
           id="defs67">
          <path
             d="M 0 8  C 2.121625 8 4.156639 7.15707 5.656854 5.656854  C 7.15707 4.156639 8 2.121625 8 0  C 8 -2.121625 7.15707 -4.156639 5.656854 -5.656854  C 4.156639 -7.15707 2.121625 -8 0 -8  C -2.121625 -8 -4.156639 -7.15707 -5.656854 -5.656854  C -7.15707 -4.156639 -8 -2.121625 -8 0  C -8 2.121625 -7.15707 4.156639 -5.656854 5.656854  C -4.156639 7.15707 -2.121625 8 0 8  z "
             id="m88236bace3"
             style="stroke:#000000;stroke-width:0.5;" />
        </defs>
        <g
           clip-path="url(#p6c76e59686)"
           id="g70">
          <use
             style="fill:#50b131;stroke:#000000;stroke-width:0.5;"
             x="211.967365958"
             xlink:href="#m88236bace3"
             y="337.111835938"
             id="use72" />
          <use
             style="fill:#50b131;stroke:#000000;stroke-width:0.5;"
             x="211.967365958"
             xlink:href="#m88236bace3"
             y="86.359321204"
             id="use74" />
        </g>
      </g>
      <g
         id="line2d_9">
        <path
           clip-path="url(#p6c76e59686)"
           d="M 29.785 337.111836  L 136.895574 337.024254  L 145.134849 336.779284  L 149.254486 336.506517  L 153.374124 336.057401  L 157.493761 335.352266  L 161.613398 334.29637  L 165.733036 332.788394  L 169.852673 330.735129  L 173.972311 328.07163  L 178.091948 324.78417  L 182.211586 320.931444  L 186.331223 316.658276  L 194.570498 307.848692  L 198.690135 303.957381  L 202.809773 300.859672  L 206.92941 298.839409  L 211.049048 298.084012  L 215.168685 298.655917  L 219.288323 300.484483  L 223.40796 303.379718  L 227.527598 307.064258  L 239.88651 319.675664  L 244.006147 323.482942  L 248.125785 326.79562  L 252.245422 329.548559  L 256.36506 331.740268  L 260.484697 333.415614  L 264.604335 334.647285  L 268.723972 335.519297  L 272.84361 336.114461  L 276.963247 336.506386  L 285.202522 336.908607  L 297.561434 337.080521  L 334.638171 337.111815  L 557.098594 337.111836  L 557.098594 337.111836  "
           style="fill:none;stroke:#50b131;stroke-linecap:square;stroke-width:2.0;"
           id="path77" />
      </g>
      <g
         id="line2d_10">
        <defs
           id="defs82">
          <path
             d="M 0 8  C 2.121625 8 4.156639 7.15707 5.656854 5.656854  C 7.15707 4.156639 8 2.121625 8 0  C 8 -2.121625 7.15707 -4.156639 5.656854 -5.656854  C 4.156639 -7.15707 2.121625 -8 0 -8  C -2.121625 -8 -4.156639 -7.15707 -5.656854 -5.656854  C -7.15707 -4.156639 -8 -2.121625 -8 0  C -8 2.121625 -7.15707 4.156639 -5.656854 5.656854  C -4.156639 7.15707 -2.121625 8 0 8  z "
             id="mc47710a192"
             style="stroke:#000000;stroke-width:0.5;" />
        </defs>
        <g
           clip-path="url(#p6c76e59686)"
           id="g85">
          <use
             style="fill:#34ae91;stroke:#000000;stroke-width:0.5;"
             x="293.441796875"
             xlink:href="#mc47710a192"
             y="337.111835938"
             id="use87" />
          <use
             style="fill:#34ae91;stroke:#000000;stroke-width:0.5;"
             x="293.441796875"
             xlink:href="#mc47710a192"
             y="73.4550390625"
             id="use89" />
        </g>
      </g>
      <g
         id="line2d_11">
        <path
           clip-path="url(#p6c76e59686)"
           d="M 29.785 337.111836  L 211.049048 337.044008  L 219.288323 336.883385  L 227.527598 336.439242  L 231.647235 336.013723  L 235.766873 335.376817  L 239.88651 334.458278  L 244.006147 333.182529  L 248.125785 331.477359  L 252.245422 329.286173  L 256.36506 326.582762  L 260.484697 323.386436  L 264.604335 319.774489  L 276.963247 308.154616  L 281.082885 304.831657  L 285.202522 302.228416  L 289.322159 300.567301  L 293.441797 299.996293  L 297.561434 300.567301  L 301.681072 302.228416  L 305.800709 304.831657  L 309.920347 308.154616  L 314.039984 311.931645  L 322.279259 319.774489  L 326.398896 323.386436  L 330.518534 326.582762  L 334.638171 329.286173  L 338.757809 331.477359  L 342.877446 333.182529  L 346.997084 334.458278  L 351.116721 335.376817  L 355.236359 336.013723  L 359.355996 336.439242  L 367.595271 336.883385  L 375.834546 337.044008  L 396.432733 337.110061  L 557.098594 337.111836  L 557.098594 337.111836  "
           style="fill:none;stroke:#34ae91;stroke-linecap:square;stroke-width:2.0;"
           id="path92" />
      </g>
      <g
         id="line2d_12">
        <defs
           id="defs97">
          <path
             d="M 0 8  C 2.121625 8 4.156639 7.15707 5.656854 5.656854  C 7.15707 4.156639 8 2.121625 8 0  C 8 -2.121625 7.15707 -4.156639 5.656854 -5.656854  C 4.156639 -7.15707 2.121625 -8 0 -8  C -2.121625 -8 -4.156639 -7.15707 -5.656854 -5.656854  C -7.15707 -4.156639 -8 -2.121625 -8 0  C -8 2.121625 -7.15707 4.156639 -5.656854 5.656854  C -4.156639 7.15707 -2.121625 8 0 8  z "
             id="m9756316f26"
             style="stroke:#000000;stroke-width:0.5;" />
        </defs>
        <g
           clip-path="url(#p6c76e59686)"
           id="g100">
          <use
             style="fill:#37abb5;stroke:#000000;stroke-width:0.5;"
             x="374.916227792"
             xlink:href="#m9756316f26"
             y="337.111835938"
             id="use102" />
          <use
             style="fill:#37abb5;stroke:#000000;stroke-width:0.5;"
             x="374.916227792"
             xlink:href="#m9756316f26"
             y="86.359321204"
             id="use104" />
        </g>
      </g>
      <g
         id="line2d_13">
        <path
           clip-path="url(#p6c76e59686)"
           d="M 29.785 337.111836  L 293.441797 337.051585  L 301.681072 336.908607  L 309.920347 336.506386  L 314.039984 336.114461  L 318.159622 335.519297  L 322.279259 334.647285  L 326.398896 333.415614  L 330.518534 331.740268  L 334.638171 329.548559  L 338.757809 326.79562  L 342.877446 323.482942  L 346.997084 319.675664  L 359.355996 307.064258  L 363.475634 303.379718  L 367.595271 300.484483  L 371.714908 298.655917  L 375.834546 298.084012  L 379.954183 298.839409  L 384.073821 300.859672  L 388.193458 303.957381  L 392.313096 307.848692  L 404.672008 320.931444  L 408.791646 324.78417  L 412.911283 328.07163  L 417.03092 330.735129  L 421.150558 332.788394  L 425.270195 334.29637  L 429.389833 335.352266  L 433.50947 336.057401  L 437.629108 336.506517  L 441.748745 336.779284  L 449.98802 337.024254  L 466.46657 337.108441  L 557.098594 337.111836  L 557.098594 337.111836  "
           style="fill:none;stroke:#37abb5;stroke-linecap:square;stroke-width:2.0;"
           id="path107" />
      </g>
      <g
         id="line2d_14">
        <defs
           id="defs112">
          <path
             d="M 0 8  C 2.121625 8 4.156639 7.15707 5.656854 5.656854  C 7.15707 4.156639 8 2.121625 8 0  C 8 -2.121625 7.15707 -4.156639 5.656854 -5.656854  C 4.156639 -7.15707 2.121625 -8 0 -8  C -2.121625 -8 -4.156639 -7.15707 -5.656854 -5.656854  C -7.15707 -4.156639 -8 -2.121625 -8 0  C -8 2.121625 -7.15707 4.156639 -5.656854 5.656854  C -4.156639 7.15707 -2.121625 8 0 8  z "
             id="mcf3c25d69e"
             style="stroke:#000000;stroke-width:0.5;" />
        </defs>
        <g
           clip-path="url(#p6c76e59686)"
           id="g115">
          <use
             style="fill:#3ba3ec;stroke:#000000;stroke-width:0.5;"
             x="448.415373745"
             xlink:href="#mcf3c25d69e"
             y="337.111835938"
             id="use117" />
          <use
             style="fill:#3ba3ec;stroke:#000000;stroke-width:0.5;"
             x="448.415373745"
             xlink:href="#mcf3c25d69e"
             y="123.809006583"
             id="use119" />
        </g>
      </g>
      <g
         id="line2d_15">
        <path
           clip-path="url(#p6c76e59686)"
           d="M 29.785 337.111836  L 375.834546 337.053846  L 384.073821 336.889152  L 388.193458 336.697752  L 392.313096 336.368718  L 396.432733 335.825378  L 400.552371 334.964569  L 404.672008 333.658041  L 408.791646 331.76153  L 412.911283 329.134343  L 417.03092 325.670549  L 421.150558 321.339413  L 425.270195 316.228044  L 437.629108 299.370785  L 441.748745 294.953814  L 445.868383 292.093947  L 449.98802 291.211385  L 454.107657 292.482408  L 458.227295 295.788419  L 462.346932 300.72985  L 466.46657 306.704623  L 470.586207 313.030324  L 474.705845 319.075532  L 478.825482 324.364505  L 482.94512 328.630809  L 487.064757 331.814394  L 491.184395 334.014664  L 495.304032 335.422659  L 499.423669 336.255726  L 503.543307 336.710389  L 507.662944 336.938543  L 515.902219 337.087254  L 548.859319 337.111836  L 557.098594 337.111836  L 557.098594 337.111836  "
           style="fill:none;stroke:#3ba3ec;stroke-linecap:square;stroke-width:2.0;"
           id="path122" />
      </g>
      <g
         id="line2d_16">
        <defs
           id="defs127">
          <path
             d="M 0 8  C 2.121625 8 4.156639 7.15707 5.656854 5.656854  C 7.15707 4.156639 8 2.121625 8 0  C 8 -2.121625 7.15707 -4.156639 5.656854 -5.656854  C 4.156639 -7.15707 2.121625 -8 0 -8  C -2.121625 -8 -4.156639 -7.15707 -5.656854 -5.656854  C -7.15707 -4.156639 -8 -2.121625 -8 0  C -8 2.121625 -7.15707 4.156639 -5.656854 5.656854  C -4.156639 7.15707 -2.121625 8 0 8  z "
             id="m21d760679a"
             style="stroke:#000000;stroke-width:0.5;" />
        </defs>
        <g
           clip-path="url(#p6c76e59686)"
           id="g130">
          <use
             style="fill:#bb83f4;stroke:#000000;stroke-width:0.5;"
             x="506.744626229"
             xlink:href="#m21d760679a"
             y="337.111835938"
             id="use132" />
          <use
             style="fill:#bb83f4;stroke:#000000;stroke-width:0.5;"
             x="506.744626229"
             xlink:href="#m21d760679a"
             y="182.138259068"
             id="use134" />
        </g>
      </g>
      <g
         id="line2d_17">
        <path
           clip-path="url(#p6c76e59686)"
           d="M 29.785 337.111836  L 449.98802 337.05523  L 458.227295 336.803661  L 462.346932 336.44462  L 466.46657 335.740523  L 470.586207 334.441146  L 474.705845 332.192949  L 478.825482 328.562778  L 482.94512 323.124754  L 487.064757 315.62737  L 491.184395 306.222868  L 495.304032 295.683942  L 499.423669 285.478857  L 503.543307 277.572319  L 507.662944 273.908705  L 511.782582 275.709924  L 515.902219 282.89421  L 520.021857 293.955809  L 524.141494 306.453354  L 528.261132 317.911749  L 532.380769 326.676911  L 536.500406 332.290323  L 540.620044 335.270302  L 544.739681 336.553652  L 548.859319 336.98595  L 557.098594 337.110446  L 557.098594 337.110446  "
           style="fill:none;stroke:#bb83f4;stroke-linecap:square;stroke-width:2.0;"
           id="path137" />
      </g>
      <g
         id="line2d_18">
        <defs
           id="defs142">
          <path
             d="M 0 8  C 2.121625 8 4.156639 7.15707 5.656854 5.656854  C 7.15707 4.156639 8 2.121625 8 0  C 8 -2.121625 7.15707 -4.156639 5.656854 -5.656854  C 4.156639 -7.15707 2.121625 -8 0 -8  C -2.121625 -8 -4.156639 -7.15707 -5.656854 -5.656854  C -7.15707 -4.156639 -8 -2.121625 -8 0  C -8 2.121625 -7.15707 4.156639 -5.656854 5.656854  C -4.156639 7.15707 -2.121625 8 0 8  z "
             id="md79bed094d"
             style="stroke:#000000;stroke-width:0.5;" />
        </defs>
        <g
           clip-path="url(#p6c76e59686)"
           id="g145">
          <use
             style="fill:#f564d4;stroke:#000000;stroke-width:0.5;"
             x="544.194311608"
             xlink:href="#md79bed094d"
             y="337.111835938"
             id="use147" />
          <use
             style="fill:#f564d4;stroke:#000000;stroke-width:0.5;"
             x="544.194311608"
             xlink:href="#md79bed094d"
             y="255.637405021"
             id="use149" />
        </g>
        <path
           inkscape:connector-curvature="0"
           id="path3325"
           d="m 175.38645,283.26787 76.36753,0"
           style="fill:none;stroke:#ffffff;stroke-width:3.20000005;stroke-linecap:butt;stroke-linejoin:miter;stroke-miterlimit:4;stroke-opacity:1;stroke-dasharray:none;marker-start:url(#Arrow1Mstartn);marker-end:url(#Arrow1Mendu)" />
        <g
           transform="matrix(0.8,0,0,0.8,-184.14407,-304.01078)"
           id="g4041"
           style="stroke-linecap:butt;stroke-linejoin:round;stroke-miterlimit:100000">
          <text
             xml:space="preserve"
             style="font-size:24px;font-style:normal;font-variant:normal;font-weight:normal;font-stretch:normal;line-height:125%;letter-spacing:0px;word-spacing:0px;fill:#ffffff;fill-opacity:1;stroke:none;font-family:Latin Modern Math;-inkscape-font-specification:Latin Modern Math"
             x="462.35681"
             y="707.40204"
             id="text4725"
             sodipodi:linespacing="125%"><tspan
               sodipodi:role="line"
               id="tspan4727"
               x="462.35681"
               y="707.40204"
               style="font-size:36px;fill:#ffffff;fill-opacity:1">Δ<tspan
   style="font-style:italic;font-variant:normal;font-weight:normal;font-stretch:normal;fill:#ffffff;fill-opacity:1;font-family:Latin Modern Roman Unslanted;-inkscape-font-specification:Latin Modern Roman Unslanted"
   id="tspan3255">p</tspan></tspan></text>
          <text
             xml:space="preserve"
             style="font-size:36px;font-style:normal;font-variant:normal;font-weight:normal;font-stretch:normal;line-height:125%;letter-spacing:0px;word-spacing:0px;fill:#ffffff;fill-opacity:1;stroke:none;font-family:Latin Modern Math;-inkscape-font-specification:Latin Modern Math"
             x="490.89285"
             y="707.89789"
             id="text3257"
             sodipodi:linespacing="125%"><tspan
               sodipodi:role="line"
               id="tspan3259"
               x="490.89285"
               y="707.89789"
               style="font-style:italic;font-variant:normal;font-weight:normal;font-stretch:normal;fill:#ffffff;fill-opacity:1;font-family:Latin Modern Roman Unslanted;-inkscape-font-specification:Latin Modern Roman Unslanted">^</tspan></text>
        </g>
      </g>
      <g
         id="line2d_19">
        <path
           clip-path="url(#p6c76e59686)"
           d="M 29.785 337.111836  L 507.662944 337.079245  L 511.782582 336.978586  L 515.902219 336.616669  L 520.021857 335.453089  L 524.141494 332.152583  L 528.261132 324.041227  L 532.380769 307.216116  L 536.500406 278.977847  L 540.620044 243.667406  L 544.739681 217.911256  L 548.859319 223.974995  L 552.978956 266.087809  L 557.098594 314.992591  L 557.098594 314.992591  "
           style="fill:none;stroke:#f564d4;stroke-linecap:square;stroke-width:2.0;"
           id="path152" />
      </g>
      <g
         id="patch_3">
        <path
           d="M 29.785 337.111836  L 557.098594 337.111836  "
           style="fill:none;stroke:#ffffff;stroke-linecap:square;stroke-linejoin:miter;"
           id="path155" />
      </g>
      <g
         id="patch_4">
        <path
           d="M 29.785 337.111836  L 29.785 73.455039  "
           style="fill:none;stroke:#ffffff;stroke-linecap:square;stroke-linejoin:miter;"
           id="path158" />
      </g>
      <g
         id="patch_5">
        <path
           d="M 29.785 73.455039  L 557.098594 73.455039  "
           style="fill:none;stroke:#ffffff;stroke-linecap:square;stroke-linejoin:miter;"
           id="path161" />
      </g>
      <g
         id="patch_6">
        <path
           d="M 557.098594 337.111836  L 557.098594 73.455039  "
           style="fill:none;stroke:#ffffff;stroke-linecap:square;stroke-linejoin:miter;"
           id="path164" />
      </g>
      <g
         id="matplotlib.axis_1">
        <g
           id="xtick_1">
          <g
             id="line2d_20">
            <defs
               id="defs169">
              <path
                 d="M 0 0  L 0 -4  "
                 id="mc6e90e0031"
                 style="stroke:#ffffff;stroke-width:0.5;" />
            </defs>
            <g
               id="g172">
              <use
                 style="fill:#ffffff;stroke:#ffffff;stroke-width:0.5;"
                 x="29.785"
                 xlink:href="#mc6e90e0031"
                 y="337.111835938"
                 id="use174" />
            </g>
          </g>
          <g
             id="line2d_21">
            <defs
               id="defs177">
              <path
                 d="M 0 0  L 0 4  "
                 id="mcf35af6224"
                 style="stroke:#ffffff;stroke-width:0.5;" />
            </defs>
            <g
               id="g180">
              <use
                 style="fill:#ffffff;stroke:#ffffff;stroke-width:0.5;"
                 x="29.785"
                 xlink:href="#mcf35af6224"
                 y="73.4550390625"
                 id="use182" />
            </g>
          </g>
          <g
             id="text_1">
            <!-- $0$ -->
            <defs
               id="defs185">
              <path
                 d="M 25 -2.203125  Q 12.75 -2.203125 8.328125 7.875  Q 3.90625 17.96875 3.90625 31.890625  Q 3.90625 40.578125 5.484375 48.234375  Q 7.078125 55.90625 11.78125 61.25  Q 16.5 66.609375 25 66.609375  Q 31.59375 66.609375 35.78125 63.375  Q 39.984375 60.15625 42.1875 55.046875  Q 44.390625 49.953125 45.1875 44.109375  Q 46 38.28125 46 31.890625  Q 46 23.296875 44.40625 15.796875  Q 42.828125 8.296875 38.1875 3.046875  Q 33.546875 -2.203125 25 -2.203125  M 25 0.390625  Q 30.5625 0.390625 33.296875 6.09375  Q 36.03125 11.8125 36.671875 18.75  Q 37.3125 25.6875 37.3125 33.5  Q 37.3125 41.015625 36.671875 47.359375  Q 36.03125 53.71875 33.3125 58.859375  Q 30.609375 64.015625 25 64.015625  Q 19.34375 64.015625 16.609375 58.828125  Q 13.875 53.65625 13.234375 47.328125  Q 12.59375 41.015625 12.59375 33.5  Q 12.59375 27.9375 12.859375 23  Q 13.140625 18.0625 14.3125 12.8125  Q 15.484375 7.5625 18.09375 3.96875  Q 20.703125 0.390625 25 0.390625  "
                 id="Cmr10-30" />
            </defs>
            <g
               style="fill:#ffffff;"
               transform="translate(23.785 359.348085938)scale(0.24 -0.24)"
               id="g188">
              <use
                 transform="translate(0.0 0.390625)"
                 xlink:href="#Cmr10-30"
                 id="use190" />
            </g>
          </g>
        </g>
        <g
           id="xtick_2">
          <g
             id="line2d_22">
            <g
               id="g194">
              <use
                 style="fill:#ffffff;stroke:#ffffff;stroke-width:0.5;"
                 x="293.441796875"
                 xlink:href="#mc6e90e0031"
                 y="337.111835938"
                 id="use196" />
            </g>
          </g>
          <g
             id="line2d_23">
            <g
               id="g199">
              <use
                 style="fill:#ffffff;stroke:#ffffff;stroke-width:0.5;"
                 x="293.441796875"
                 xlink:href="#mcf35af6224"
                 y="73.4550390625"
                 id="use201" />
            </g>
          </g>
          <g
             id="text_2">
            <!-- $\frac{1}{2}$ -->
            <defs
               id="defs204">
              <path
                 d="M 9.28125 0  L 9.28125 3.515625  Q 21.78125 3.515625 21.78125 6.6875  L 21.78125 59.1875  Q 16.609375 56.6875 8.6875 56.6875  L 8.6875 60.203125  Q 20.953125 60.203125 27.203125 66.609375  L 28.609375 66.609375  Q 28.953125 66.609375 29.265625 66.328125  Q 29.59375 66.0625 29.59375 65.71875  L 29.59375 6.6875  Q 29.59375 3.515625 42.09375 3.515625  L 42.09375 0  z "
                 id="Cmr10-31" />
              <path
                 d="M 4.984375 0  L 4.984375 2.6875  Q 4.984375 2.9375 5.171875 3.21875  L 20.703125 20.40625  Q 24.21875 24.21875 26.40625 26.796875  Q 28.609375 29.390625 30.75 32.765625  Q 32.90625 36.140625 34.15625 39.625  Q 35.40625 43.109375 35.40625 47.015625  Q 35.40625 51.125 33.890625 54.859375  Q 32.375 58.59375 29.375 60.84375  Q 26.375 63.09375 22.125 63.09375  Q 17.78125 63.09375 14.3125 60.46875  Q 10.84375 57.859375 9.421875 53.71875  Q 9.8125 53.8125 10.5 53.8125  Q 12.75 53.8125 14.328125 52.296875  Q 15.921875 50.78125 15.921875 48.390625  Q 15.921875 46.09375 14.328125 44.5  Q 12.75 42.921875 10.5 42.921875  Q 8.15625 42.921875 6.5625 44.546875  Q 4.984375 46.1875 4.984375 48.390625  Q 4.984375 52.15625 6.390625 55.4375  Q 7.8125 58.734375 10.46875 61.296875  Q 13.140625 63.875 16.484375 65.234375  Q 19.828125 66.609375 23.578125 66.609375  Q 29.296875 66.609375 34.21875 64.1875  Q 39.15625 61.765625 42.03125 57.34375  Q 44.921875 52.9375 44.921875 47.015625  Q 44.921875 42.671875 43.015625 38.765625  Q 41.109375 34.859375 38.125 31.65625  Q 35.15625 28.46875 30.515625 24.40625  Q 25.875 20.359375 24.421875 19  L 13.09375 8.109375  L 22.703125 8.109375  Q 29.78125 8.109375 34.546875 8.21875  Q 39.3125 8.34375 39.59375 8.59375  Q 40.765625 9.859375 42 17.828125  L 44.921875 17.828125  L 42.09375 0  z "
                 id="Cmr10-32" />
            </defs>
            <g
               style="fill:#ffffff;"
               transform="translate(287.681796875 361.511835937)scale(0.24 -0.24)"
               id="g208">
              <use
                 transform="translate(0.0 38.3734375)scale(0.7)"
                 xlink:href="#Cmr10-31"
                 id="use210" />
              <use
                 transform="translate(0.0 -39.503125)scale(0.7)"
                 xlink:href="#Cmr10-32"
                 id="use212" />
              <path
                 d="M 0 13.373437  L 0 19.623437  L 35 19.623437  L 35 13.373437  L 0 13.373437  z "
                 id="path214" />
            </g>
          </g>
        </g>
        <g
           id="xtick_3">
          <g
             id="line2d_24">
            <g
               id="g218">
              <use
                 style="fill:#ffffff;stroke:#ffffff;stroke-width:0.5;"
                 x="557.09859375"
                 xlink:href="#mc6e90e0031"
                 y="337.111835938"
                 id="use220" />
            </g>
          </g>
          <g
             id="line2d_25">
            <g
               id="g223">
              <use
                 style="fill:#ffffff;stroke:#ffffff;stroke-width:0.5;"
                 x="557.09859375"
                 xlink:href="#mcf35af6224"
                 y="73.4550390625"
                 id="use225" />
            </g>
          </g>
          <g
             id="text_3">
            <!-- $1$ -->
            <g
               style="fill:#ffffff;"
               transform="translate(551.09859375 359.348085938)scale(0.24 -0.24)"
               id="g228">
              <use
                 transform="translate(0.0 0.390625)"
                 xlink:href="#Cmr10-31"
                 id="use230" />
            </g>
          </g>
        </g>
        <g
           id="text_4">
          <!-- $\hat{p}=H/(T+H)$ -->
          <defs
             id="defs233">
            <path
               d="M -2.484375 -19.390625  Q -3.421875 -19.390625 -3.421875 -18.109375  Q -3.078125 -15.921875 -2.09375 -15.921875  Q 1.03125 -15.921875 2.265625 -15.359375  Q 3.515625 -14.796875 4.203125 -12.5  L 15.484375 32.515625  Q 16.21875 34.375 16.21875 37.3125  Q 16.21875 41.609375 13.28125 41.609375  Q 10.15625 41.609375 8.640625 37.859375  Q 7.125 34.125 5.71875 28.421875  Q 5.71875 27.78125 4.890625 27.78125  L 3.71875 27.78125  Q 3.46875 27.78125 3.171875 28.140625  Q 2.875 28.515625 2.875 28.8125  Q 3.953125 33.15625 4.953125 36.171875  Q 5.953125 39.203125 8.078125 41.6875  Q 10.203125 44.1875 13.375 44.1875  Q 16.796875 44.1875 19.375 42.25  Q 21.96875 40.328125 22.703125 37.015625  Q 25.4375 40.1875 28.75 42.1875  Q 32.078125 44.1875 35.59375 44.1875  Q 39.796875 44.1875 42.890625 41.9375  Q 46 39.703125 47.5625 36.0625  Q 49.125 32.421875 49.125 28.21875  Q 49.125 21.78125 45.828125 14.890625  Q 42.53125 8.015625 36.890625 3.4375  Q 31.25 -1.125 24.8125 -1.125  Q 21.875 -1.125 19.5 0.53125  Q 17.140625 2.203125 15.828125 4.890625  L 11.28125 -12.890625  Q 11.03125 -14.359375 10.984375 -14.59375  Q 10.984375 -15.921875 17.578125 -15.921875  Q 18.609375 -15.921875 18.609375 -17.1875  Q 18.265625 -18.5 18.046875 -18.9375  Q 17.828125 -19.390625 16.890625 -19.390625  z M 24.90625 1.515625  Q 28.375 1.515625 31.34375 4.375  Q 34.328125 7.234375 36.1875 10.796875  Q 37.546875 13.484375 38.734375 17.359375  Q 39.9375 21.234375 40.8125 25.625  Q 41.703125 30.03125 41.703125 32.625  Q 41.703125 34.90625 41.09375 36.90625  Q 40.484375 38.921875 39.09375 40.265625  Q 37.703125 41.609375 35.40625 41.609375  Q 31.734375 41.609375 28.484375 38.984375  Q 25.25 36.375 22.609375 32.515625  L 22.609375 32.171875  L 17.09375 10.109375  Q 17.78125 6.546875 19.734375 4.03125  Q 21.6875 1.515625 24.90625 1.515625  "
               id="Cmmi10-70" />
            <path
               d="M 31 -24.8125  Q 25.4375 -20.40625 21.40625 -14.71875  Q 17.390625 -9.03125 14.8125 -2.578125  Q 12.25 3.859375 10.984375 10.890625  Q 9.71875 17.921875 9.71875 25  Q 9.71875 32.171875 10.984375 39.203125  Q 12.25 46.234375 14.859375 52.734375  Q 17.484375 59.234375 21.53125 64.890625  Q 25.59375 70.5625 31 74.8125  Q 31 75 31.5 75  L 32.421875 75  Q 32.71875 75 32.953125 74.734375  Q 33.203125 74.46875 33.203125 74.125  Q 33.203125 73.6875 33.015625 73.484375  Q 28.125 68.703125 24.875 63.234375  Q 21.625 57.765625 19.640625 51.578125  Q 17.671875 45.40625 16.796875 38.78125  Q 15.921875 32.171875 15.921875 25  Q 15.921875 -6.78125 32.90625 -23.296875  Q 33.203125 -23.578125 33.203125 -24.125  Q 33.203125 -24.359375 32.9375 -24.671875  Q 32.671875 -25 32.421875 -25  L 31.5 -25  Q 31 -25 31 -24.8125  "
               id="Cmr10-28" />
            <path
               d="M 4.59375 1.3125  Q 4.640625 1.5625 4.8125 2.1875  Q 4.984375 2.828125 5.25 3.171875  Q 5.515625 3.515625 6 3.515625  Q 14.59375 3.515625 17.390625 4  Q 20.0625 4.6875 20.609375 6.890625  L 34.28125 61.8125  Q 34.71875 63.03125 34.71875 64.015625  Q 34.71875 64.796875 31.203125 64.796875  L 25.390625 64.796875  Q 18.703125 64.796875 15.0625 62.734375  Q 11.421875 60.6875 9.71875 57.3125  Q 8.015625 53.953125 5.328125 46.296875  Q 4.984375 45.40625 4.296875 45.40625  L 3.421875 45.40625  Q 2.390625 45.40625 2.390625 46.6875  L 9.515625 67.390625  Q 9.71875 68.3125 10.5 68.3125  L 69.578125 68.3125  Q 70.609375 68.3125 70.609375 67  L 67.28125 46.296875  Q 67.28125 46 66.9375 45.703125  Q 66.609375 45.40625 66.3125 45.40625  L 65.375 45.40625  Q 64.40625 45.40625 64.40625 46.6875  Q 65.484375 53.765625 65.484375 56.6875  Q 65.484375 60.203125 64.015625 62  Q 62.546875 63.8125 60.203125 64.296875  Q 57.859375 64.796875 54.109375 64.796875  L 48.1875 64.796875  Q 45.515625 64.796875 44.578125 64.296875  Q 43.65625 63.8125 43.015625 61.375  L 29.296875 6.5  Q 29.25 6.296875 29.21875 6.09375  Q 29.203125 5.90625 29.109375 5.609375  Q 29.109375 4.34375 30.609375 4  Q 33.203125 3.515625 41.703125 3.515625  Q 42.671875 3.515625 42.671875 2.203125  Q 42.328125 0.78125 42.125 0.390625  Q 41.9375 0 41.015625 0  L 5.609375 0  Q 4.59375 0 4.59375 1.3125  "
               id="Cmmi10-54" />
            <path
               d="M 5.609375 -23  Q 5.609375 -22.703125 5.71875 -22.609375  L 40.484375 73.78125  Q 40.671875 74.359375 41.15625 74.671875  Q 41.65625 75 42.28125 75  Q 43.171875 75 43.71875 74.453125  Q 44.28125 73.921875 44.28125 73  L 44.28125 72.609375  L 9.515625 -23.78125  Q 8.9375 -25 7.625 -25  Q 6.78125 -25 6.1875 -24.40625  Q 5.609375 -23.828125 5.609375 -23  "
               id="Cmmi10-3d" />
            <path
               d="M 7.515625 13.28125  Q 6.6875 13.28125 6.140625 13.90625  Q 5.609375 14.546875 5.609375 15.28125  Q 5.609375 16.109375 6.140625 16.6875  Q 6.6875 17.28125 7.515625 17.28125  L 70.3125 17.28125  Q 71.046875 17.28125 71.578125 16.6875  Q 72.125 16.109375 72.125 15.28125  Q 72.125 14.546875 71.578125 13.90625  Q 71.046875 13.28125 70.3125 13.28125  z M 7.515625 32.71875  Q 6.6875 32.71875 6.140625 33.296875  Q 5.609375 33.890625 5.609375 34.71875  Q 5.609375 35.453125 6.140625 36.078125  Q 6.6875 36.71875 7.515625 36.71875  L 70.3125 36.71875  Q 71.046875 36.71875 71.578125 36.078125  Q 72.125 35.453125 72.125 34.71875  Q 72.125 33.890625 71.578125 33.296875  Q 71.046875 32.71875 70.3125 32.71875  z "
               id="Cmr10-3d" />
            <path
               d="M 4.6875 0  Q 3.71875 0 3.71875 1.3125  Q 3.765625 1.5625 3.90625 2.171875  Q 4.046875 2.78125 4.3125 3.140625  Q 4.59375 3.515625 4.984375 3.515625  Q 11.078125 3.515625 13.484375 4.203125  Q 14.796875 4.640625 15.375 6.890625  L 29.109375 61.8125  Q 29.296875 62.796875 29.296875 63.1875  Q 29.296875 64.265625 28.078125 64.40625  Q 26.21875 64.796875 20.90625 64.796875  Q 19.921875 64.796875 19.921875 66.109375  Q 20.265625 67.390625 20.453125 67.84375  Q 20.65625 68.3125 21.578125 68.3125  L 48.484375 68.3125  Q 49.515625 68.3125 49.515625 67  Q 49.46875 66.75 49.3125 66.15625  Q 49.171875 65.578125 48.921875 65.1875  Q 48.6875 64.796875 48.1875 64.796875  Q 42.09375 64.796875 39.703125 64.109375  Q 38.375 63.625 37.796875 61.375  L 31.78125 37.3125  L 61.8125 37.3125  L 67.921875 61.8125  Q 68.109375 62.796875 68.109375 63.1875  Q 68.109375 64.265625 66.890625 64.40625  Q 64.984375 64.796875 59.71875 64.796875  Q 58.6875 64.796875 58.6875 66.109375  Q 59.03125 67.390625 59.21875 67.84375  Q 59.421875 68.3125 60.40625 68.3125  L 87.3125 68.3125  Q 88.28125 68.3125 88.28125 67  Q 88.234375 66.75 88.078125 66.140625  Q 87.9375 65.53125 87.671875 65.15625  Q 87.40625 64.796875 87.015625 64.796875  Q 80.90625 64.796875 78.515625 64.109375  Q 77.203125 63.671875 76.609375 61.375  L 62.890625 6.5  Q 62.703125 5.515625 62.703125 5.078125  Q 62.703125 4.046875 63.921875 3.90625  Q 65.828125 3.515625 71.09375 3.515625  Q 72.125 3.515625 72.125 2.203125  Q 71.828125 1.03125 71.53125 0.515625  Q 71.234375 0 70.40625 0  L 43.5 0  Q 42.484375 0 42.484375 1.3125  Q 42.671875 2.046875 42.765625 2.390625  Q 42.875 2.734375 43.140625 3.125  Q 43.40625 3.515625 43.796875 3.515625  Q 49.90625 3.515625 52.296875 4.203125  Q 53.609375 4.640625 54.203125 6.890625  L 60.890625 33.796875  L 30.90625 33.796875  L 24.125 6.5  Q 23.875 5.28125 23.875 5.078125  Q 23.875 4.046875 25.09375 3.90625  Q 27 3.515625 32.328125 3.515625  Q 33.296875 3.515625 33.296875 2.203125  Q 32.953125 0.875 32.734375 0.4375  Q 32.515625 0 31.59375 0  z "
               id="Cmmi10-48" />
            <path
               d="M 6.5 -25  Q 5.609375 -25 5.609375 -24.125  Q 5.609375 -23.6875 5.8125 -23.484375  Q 22.90625 -6.78125 22.90625 25  Q 22.90625 56.78125 6 73.296875  Q 5.609375 73.53125 5.609375 74.125  Q 5.609375 74.46875 5.875 74.734375  Q 6.15625 75 6.5 75  L 7.421875 75  Q 7.71875 75 7.90625 74.8125  Q 15.09375 69.140625 19.875 61.03125  Q 24.65625 52.9375 26.875 43.75  Q 29.109375 34.578125 29.109375 25  Q 29.109375 17.921875 27.90625 11.0625  Q 26.703125 4.203125 24.09375 -2.453125  Q 21.484375 -9.125 17.484375 -14.765625  Q 13.484375 -20.40625 7.90625 -24.8125  Q 7.71875 -25 7.421875 -25  z "
               id="Cmr10-29" />
            <path
               d="M 13.484375 53.8125  L 11.53125 55.90625  L 25 69.390625  L 38.375 55.90625  L 36.375 53.8125  L 25 63.8125  z "
               id="Cmr10-5e" />
            <path
               d="M 7.515625 23  Q 6.6875 23 6.140625 23.625  Q 5.609375 24.265625 5.609375 25  Q 5.609375 25.734375 6.140625 26.359375  Q 6.6875 27 7.515625 27  L 36.921875 27  L 36.921875 56.5  Q 36.921875 57.28125 37.5 57.78125  Q 38.09375 58.296875 38.921875 58.296875  Q 39.65625 58.296875 40.28125 57.78125  Q 40.921875 57.28125 40.921875 56.5  L 40.921875 27  L 70.3125 27  Q 71.046875 27 71.578125 26.359375  Q 72.125 25.734375 72.125 25  Q 72.125 24.265625 71.578125 23.625  Q 71.046875 23 70.3125 23  L 40.921875 23  L 40.921875 -6.5  Q 40.921875 -7.28125 40.28125 -7.78125  Q 39.65625 -8.296875 38.921875 -8.296875  Q 38.09375 -8.296875 37.5 -7.78125  Q 36.921875 -7.28125 36.921875 -6.5  L 36.921875 23  z "
               id="Cmr10-2b" />
          </defs>
          <g
             style="fill:#ffffff;"
             transform="translate(180.221796875 403.351835938)scale(0.36 -0.36)"
             id="g244">
            <use
               transform="translate(6.0419921875 2.875)"
               xlink:href="#Cmr10-5e"
               id="use246" />
            <use
               xlink:href="#Cmmi10-70"
               id="use248" />
            <use
               transform="translate(67.8515625 0.0)"
               xlink:href="#Cmr10-3d"
               id="use250" />
            <use
               transform="translate(163.095703125 0.0)"
               xlink:href="#Cmmi10-48"
               id="use252" />
            <use
               transform="translate(246.201171875 0.0)"
               xlink:href="#Cmmi10-3d"
               id="use254" />
            <use
               transform="translate(296.201171875 0.0)"
               xlink:href="#Cmr10-28"
               id="use256" />
            <use
               transform="translate(335.01953125 0.0)"
               xlink:href="#Cmmi10-54"
               id="use258" />
            <use
               transform="translate(410.9765625 0.0)"
               xlink:href="#Cmr10-2b"
               id="use260" />
            <use
               transform="translate(506.220703125 0.0)"
               xlink:href="#Cmmi10-48"
               id="use262" />
            <use
               transform="translate(589.326171875 0.0)"
               xlink:href="#Cmr10-29"
               id="use264" />
          </g>
        </g>
      </g>
      <g
         id="matplotlib.axis_2">
        <g
           id="ytick_1">
          <g
             id="line2d_26">
            <defs
               id="defs269">
              <path
                 d="M 0 0  L 4 0  "
                 id="mef1e3ae570"
                 style="stroke:#ffffff;stroke-width:0.5;" />
            </defs>
            <g
               id="g272">
              <use
                 style="fill:#ffffff;stroke:#ffffff;stroke-width:0.5;"
                 x="29.785"
                 xlink:href="#mef1e3ae570"
                 y="337.111835938"
                 id="use274" />
            </g>
          </g>
          <g
             id="line2d_27">
            <defs
               id="defs277">
              <path
                 d="M 0 0  L -4 0  "
                 id="m019efda17d"
                 style="stroke:#ffffff;stroke-width:0.5;" />
            </defs>
            <g
               id="g280">
              <use
                 style="fill:#ffffff;stroke:#ffffff;stroke-width:0.5;"
                 x="557.09859375"
                 xlink:href="#m019efda17d"
                 y="337.111835938"
                 id="use282" />
            </g>
          </g>
          <g
             id="text_5">
            <!-- $0$ -->
            <g
               style="fill:#ffffff;"
               transform="translate(13.785 343.734335938)scale(0.24 -0.24)"
               id="g285">
              <use
                 transform="translate(0.0 0.390625)"
                 xlink:href="#Cmr10-30"
                 id="use287" />
            </g>
          </g>
        </g>
        <g
           id="ytick_2">
          <g
             id="line2d_28">
            <g
               id="g291">
              <use
                 style="fill:#ffffff;stroke:#ffffff;stroke-width:0.5;"
                 x="29.785"
                 xlink:href="#mef1e3ae570"
                 y="271.197636719"
                 id="use293" />
            </g>
          </g>
          <g
             id="line2d_29">
            <g
               id="g296">
              <use
                 style="fill:#ffffff;stroke:#ffffff;stroke-width:0.5;"
                 x="557.09859375"
                 xlink:href="#m019efda17d"
                 y="271.197636719"
                 id="use298" />
            </g>
          </g>
          <g
             id="text_6">
            <!-- $\frac{1}{8}$ -->
            <defs
               id="defs301">
              <path
                 d="M 4.203125 15.1875  Q 4.203125 21.1875 8.15625 25.796875  Q 12.109375 30.421875 18.3125 33.5  L 14.59375 35.890625  Q 11.1875 38.140625 9.03125 41.875  Q 6.890625 45.609375 6.890625 49.703125  Q 6.890625 54.5 9.40625 58.34375  Q 11.921875 62.203125 16.09375 64.40625  Q 20.265625 66.609375 25 66.609375  Q 29.4375 66.609375 33.5625 64.796875  Q 37.703125 62.984375 40.359375 59.609375  Q 43.015625 56.25 43.015625 51.609375  Q 43.015625 48.25 41.421875 45.359375  Q 39.84375 42.484375 37.078125 40.1875  Q 34.328125 37.890625 31.203125 36.28125  L 36.921875 32.625  Q 40.875 30.03125 43.28125 25.828125  Q 45.703125 21.625 45.703125 17  Q 45.703125 11.578125 42.796875 7.125  Q 39.890625 2.6875 35.109375 0.234375  Q 30.328125 -2.203125 25 -2.203125  Q 19.828125 -2.203125 15.015625 -0.09375  Q 10.203125 2 7.203125 5.984375  Q 4.203125 9.96875 4.203125 15.1875  M 9.625 15.1875  Q 9.625 11.234375 11.796875 7.953125  Q 13.96875 4.6875 17.53125 2.828125  Q 21.09375 0.984375 25 0.984375  Q 30.8125 0.984375 35.546875 4.375  Q 40.28125 7.765625 40.28125 13.375  Q 40.28125 15.28125 39.515625 17.15625  Q 38.765625 19.046875 37.421875 20.578125  Q 36.078125 22.125 34.421875 23.09375  L 21 31.78125  Q 17.875 30.125 15.25 27.578125  Q 12.640625 25.046875 11.125 21.875  Q 9.625 18.703125 9.625 15.1875  M 16.5 45.703125  L 28.609375 37.890625  Q 32.8125 40.328125 35.5 43.796875  Q 38.1875 47.265625 38.1875 51.609375  Q 38.1875 54.984375 36.296875 57.78125  Q 34.421875 60.59375 31.390625 62.15625  Q 28.375 63.71875 24.90625 63.71875  Q 21.875 63.71875 18.796875 62.546875  Q 15.71875 61.375 13.71875 59.046875  Q 11.71875 56.734375 11.71875 53.609375  Q 11.71875 48.921875 16.5 45.703125  "
                 id="Cmr10-38" />
            </defs>
            <g
               style="fill:#ffffff;"
               transform="translate(14.265 276.357636719)scale(0.24 -0.24)"
               id="g304">
              <use
                 transform="translate(0.0 38.3734375)scale(0.7)"
                 xlink:href="#Cmr10-31"
                 id="use306" />
              <use
                 transform="translate(0.0 -39.503125)scale(0.7)"
                 xlink:href="#Cmr10-38"
                 id="use308" />
              <path
                 d="M 0 13.373437  L 0 19.623437  L 35 19.623437  L 35 13.373437  L 0 13.373437  z "
                 id="path310" />
            </g>
          </g>
        </g>
        <g
           id="ytick_3">
          <g
             id="line2d_30">
            <g
               id="g314">
              <use
                 style="fill:#ffffff;stroke:#ffffff;stroke-width:0.5;"
                 x="29.785"
                 xlink:href="#mef1e3ae570"
                 y="205.2834375"
                 id="use316" />
            </g>
          </g>
          <g
             id="line2d_31">
            <g
               id="g319">
              <use
                 style="fill:#ffffff;stroke:#ffffff;stroke-width:0.5;"
                 x="557.09859375"
                 xlink:href="#m019efda17d"
                 y="205.2834375"
                 id="use321" />
            </g>
          </g>
          <g
             id="text_7">
            <!-- $\frac{1}{4}$ -->
            <defs
               id="defs324">
              <path
                 d="M 2.78125 16.5  L 2.78125 20.015625  L 33.6875 66.109375  Q 34.03125 66.609375 34.71875 66.609375  L 36.1875 66.609375  Q 37.3125 66.609375 37.3125 65.484375  L 37.3125 20.015625  L 47.125 20.015625  L 47.125 16.5  L 37.3125 16.5  L 37.3125 6.6875  Q 37.3125 4.640625 40.234375 4.078125  Q 43.171875 3.515625 47.015625 3.515625  L 47.015625 0  L 19.484375 0  L 19.484375 3.515625  Q 23.34375 3.515625 26.265625 4.078125  Q 29.203125 4.640625 29.203125 6.6875  L 29.203125 16.5  z M 6.109375 20.015625  L 29.78125 20.015625  L 29.78125 55.421875  z "
                 id="Cmr10-34" />
            </defs>
            <g
               style="fill:#ffffff;"
               transform="translate(14.265 210.5634375)scale(0.24 -0.24)"
               id="g327">
              <use
                 transform="translate(0.0 38.3734375)scale(0.7)"
                 xlink:href="#Cmr10-31"
                 id="use329" />
              <use
                 transform="translate(0.0 -39.503125)scale(0.7)"
                 xlink:href="#Cmr10-34"
                 id="use331" />
              <path
                 d="M 0 13.373437  L 0 19.623437  L 35 19.623437  L 35 13.373437  L 0 13.373437  z "
                 id="path333" />
            </g>
          </g>
        </g>
        <g
           id="ytick_4">
          <g
             id="line2d_32">
            <g
               id="g337">
              <use
                 style="fill:#ffffff;stroke:#ffffff;stroke-width:0.5;"
                 x="29.785"
                 xlink:href="#mef1e3ae570"
                 y="139.369238281"
                 id="use339" />
            </g>
          </g>
          <g
             id="line2d_33">
            <g
               id="g342">
              <use
                 style="fill:#ffffff;stroke:#ffffff;stroke-width:0.5;"
                 x="557.09859375"
                 xlink:href="#m019efda17d"
                 y="139.369238281"
                 id="use344" />
            </g>
          </g>
          <g
             id="text_8">
            <!-- $\frac{3}{8}$ -->
            <defs
               id="defs347">
              <path
                 d="M 9.515625 7.71875  Q 11.859375 4.296875 15.8125 2.640625  Q 19.78125 0.984375 24.3125 0.984375  Q 30.125 0.984375 32.5625 5.9375  Q 35.015625 10.890625 35.015625 17.1875  Q 35.015625 20.015625 34.5 22.84375  Q 33.984375 25.6875 32.765625 28.125  Q 31.546875 30.5625 29.421875 32.03125  Q 27.296875 33.5 24.21875 33.5  L 17.578125 33.5  Q 16.703125 33.5 16.703125 34.421875  L 16.703125 35.296875  Q 16.703125 36.078125 17.578125 36.078125  L 23.09375 36.53125  Q 26.609375 36.53125 28.921875 39.15625  Q 31.25 41.796875 32.328125 45.578125  Q 33.40625 49.359375 33.40625 52.78125  Q 33.40625 57.5625 31.15625 60.640625  Q 28.90625 63.71875 24.3125 63.71875  Q 20.515625 63.71875 17.046875 62.28125  Q 13.578125 60.84375 11.53125 57.90625  Q 11.71875 57.953125 11.859375 57.984375  Q 12.015625 58.015625 12.203125 58.015625  Q 14.453125 58.015625 15.96875 56.453125  Q 17.484375 54.890625 17.484375 52.6875  Q 17.484375 50.53125 15.96875 48.96875  Q 14.453125 47.40625 12.203125 47.40625  Q 10.015625 47.40625 8.453125 48.96875  Q 6.890625 50.53125 6.890625 52.6875  Q 6.890625 56.984375 9.46875 60.15625  Q 12.0625 63.328125 16.140625 64.96875  Q 20.21875 66.609375 24.3125 66.609375  Q 27.34375 66.609375 30.703125 65.703125  Q 34.078125 64.796875 36.8125 63.109375  Q 39.546875 61.421875 41.28125 58.78125  Q 43.015625 56.15625 43.015625 52.78125  Q 43.015625 48.578125 41.140625 45.015625  Q 39.265625 41.453125 35.984375 38.859375  Q 32.71875 36.28125 28.8125 35.015625  Q 33.15625 34.1875 37.0625 31.734375  Q 40.96875 29.296875 43.328125 25.484375  Q 45.703125 21.6875 45.703125 17.28125  Q 45.703125 11.765625 42.671875 7.296875  Q 39.65625 2.828125 34.71875 0.3125  Q 29.78125 -2.203125 24.3125 -2.203125  Q 19.625 -2.203125 14.90625 -0.40625  Q 10.203125 1.375 7.203125 4.9375  Q 4.203125 8.5 4.203125 13.484375  Q 4.203125 15.96875 5.859375 17.625  Q 7.515625 19.28125 10.015625 19.28125  Q 11.625 19.28125 12.96875 18.53125  Q 14.3125 17.78125 15.0625 16.40625  Q 15.828125 15.046875 15.828125 13.484375  Q 15.828125 11.03125 14.109375 9.375  Q 12.40625 7.71875 10.015625 7.71875  z "
                 id="Cmr10-33" />
            </defs>
            <g
               style="fill:#ffffff;"
               transform="translate(14.265 144.649238281)scale(0.24 -0.24)"
               id="g350">
              <use
                 transform="translate(0.0 39.3734375)scale(0.7)"
                 xlink:href="#Cmr10-33"
                 id="use352" />
              <use
                 transform="translate(0.0 -40.045312499999994)scale(0.7)"
                 xlink:href="#Cmr10-38"
                 id="use354" />
              <path
                 d="M 0 12.83125  L 0 19.08125  L 35 19.08125  L 35 12.83125  L 0 12.83125  z "
                 id="path356" />
            </g>
          </g>
        </g>
        <g
           id="ytick_5">
          <g
             id="line2d_34">
            <g
               id="g360">
              <use
                 style="fill:#ffffff;stroke:#ffffff;stroke-width:0.5;"
                 x="29.785"
                 xlink:href="#mef1e3ae570"
                 y="73.4550390625"
                 id="use362" />
            </g>
          </g>
          <g
             id="line2d_35">
            <g
               id="g365">
              <use
                 style="fill:#ffffff;stroke:#ffffff;stroke-width:0.5;"
                 x="557.09859375"
                 xlink:href="#m019efda17d"
                 y="73.4550390625"
                 id="use367" />
            </g>
          </g>
          <g
             id="text_9">
            <!-- $\frac{1}{2}$ -->
            <g
               style="fill:#ffffff;"
               transform="translate(14.265 78.7350390625)scale(0.24 -0.24)"
               id="g370">
              <use
                 transform="translate(0.0 38.3734375)scale(0.7)"
                 xlink:href="#Cmr10-31"
                 id="use372" />
              <use
                 transform="translate(0.0 -39.503125)scale(0.7)"
                 xlink:href="#Cmr10-32"
                 id="use374" />
              <path
                 d="M 0 13.373437  L 0 19.623437  L 35 19.623437  L 35 13.373437  L 0 13.373437  z "
                 id="path376" />
            </g>
          </g>
        </g>
      </g>
      <g
         id="text_10">
        <!-- $n=128$ -->
        <defs
           id="defs379">
          <path
             d="M 7.71875 1.703125  Q 7.71875 2.296875 7.8125 2.59375  L 15.28125 32.421875  Q 16.015625 35.203125 16.015625 37.3125  Q 16.015625 41.609375 13.09375 41.609375  Q 9.96875 41.609375 8.453125 37.859375  Q 6.9375 34.125 5.515625 28.421875  Q 5.515625 28.125 5.21875 27.953125  Q 4.9375 27.78125 4.6875 27.78125  L 3.515625 27.78125  Q 3.171875 27.78125 2.921875 28.140625  Q 2.6875 28.515625 2.6875 28.8125  Q 3.765625 33.15625 4.765625 36.171875  Q 5.765625 39.203125 7.890625 41.6875  Q 10.015625 44.1875 13.1875 44.1875  Q 16.9375 44.1875 19.8125 41.8125  Q 22.703125 39.453125 22.703125 35.796875  Q 25.6875 39.703125 29.6875 41.9375  Q 33.6875 44.1875 38.1875 44.1875  Q 41.75 44.1875 44.328125 42.96875  Q 46.921875 41.75 48.359375 39.28125  Q 49.8125 36.8125 49.8125 33.40625  Q 49.8125 29.296875 47.96875 23.484375  Q 46.140625 17.671875 43.40625 10.5  Q 42 7.234375 42 4.5  Q 42 1.515625 44.28125 1.515625  Q 48.1875 1.515625 50.796875 5.703125  Q 53.421875 9.90625 54.5 14.703125  Q 54.6875 15.28125 55.328125 15.28125  L 56.5 15.28125  Q 56.890625 15.28125 57.15625 15.03125  Q 57.421875 14.796875 57.421875 14.40625  Q 57.421875 14.3125 57.328125 14.109375  Q 55.953125 8.453125 52.5625 3.65625  Q 49.171875 -1.125 44.09375 -1.125  Q 40.578125 -1.125 38.078125 1.296875  Q 35.59375 3.71875 35.59375 7.171875  Q 35.59375 9.03125 36.375 11.078125  Q 37.640625 14.359375 39.28125 18.890625  Q 40.921875 23.4375 41.96875 27.578125  Q 43.015625 31.734375 43.015625 34.90625  Q 43.015625 37.703125 41.859375 39.65625  Q 40.71875 41.609375 37.984375 41.609375  Q 34.328125 41.609375 31.25 39.984375  Q 28.171875 38.375 25.875 35.71875  Q 23.578125 33.0625 21.6875 29.390625  L 14.890625 2.203125  Q 14.546875 0.828125 13.34375 -0.140625  Q 12.15625 -1.125 10.6875 -1.125  Q 9.46875 -1.125 8.59375 -0.34375  Q 7.71875 0.4375 7.71875 1.703125  "
             id="Cmmi10-6e" />
        </defs>
        <g
           style="fill:#ffffff;"
           transform="translate(235.301796875 68.4550390625)scale(0.36 -0.36)"
           id="g382">
          <use
             transform="translate(0.0 0.390625)"
             xlink:href="#Cmmi10-6e"
             id="use384" />
          <use
             transform="translate(77.568359375 0.390625)"
             xlink:href="#Cmr10-3d"
             id="use386" />
          <use
             transform="translate(172.8125 0.390625)"
             xlink:href="#Cmr10-31"
             id="use388" />
          <use
             transform="translate(222.8125 0.390625)"
             xlink:href="#Cmr10-32"
             id="use390" />
          <use
             transform="translate(272.8125 0.390625)"
             xlink:href="#Cmr10-38"
             id="use392" />
        </g>
      </g>
    </g>
  </g>
  <defs
     id="defs394">
    <clipPath
       id="p6c76e59686">
      <rect
         height="263.656796875"
         width="527.31359375"
         x="29.785"
         y="73.4550390625"
         id="rect397" />
    </clipPath>
  </defs>
</svg>
