<?xml version="1.0" encoding="UTF-8" standalone="no"?>
<!-- Created with matplotlib (http://matplotlib.org/) -->

<svg
   xmlns:dc="http://purl.org/dc/elements/1.1/"
   xmlns:cc="http://creativecommons.org/ns#"
   xmlns:rdf="http://www.w3.org/1999/02/22-rdf-syntax-ns#"
   xmlns:svg="http://www.w3.org/2000/svg"
   xmlns="http://www.w3.org/2000/svg"
   xmlns:xlink="http://www.w3.org/1999/xlink"
   xmlns:sodipodi="http://sodipodi.sourceforge.net/DTD/sodipodi-0.dtd"
   xmlns:inkscape="http://www.inkscape.org/namespaces/inkscape"
   sodipodi:docname="coin_distance_w_fluctuations.svg"
   inkscape:version="0.48.4 r9939"
   id="svg2"
   width="576pt"
   viewBox="0 0 576 432"
   version="1.1"
   height="432pt">
  <metadata
     id="metadata346">
    <rdf:RDF>
      <cc:Work
         rdf:about="">
        <dc:format>image/svg+xml</dc:format>
        <dc:type
           rdf:resource="http://purl.org/dc/dcmitype/StillImage" />
      </cc:Work>
    </rdf:RDF>
  </metadata>
  <sodipodi:namedview
     pagecolor="#9a9a9a"
     bordercolor="#666666"
     borderopacity="1"
     objecttolerance="10"
     gridtolerance="10"
     guidetolerance="10"
     inkscape:pageopacity="1"
     inkscape:pageshadow="2"
     inkscape:window-width="1920"
     inkscape:window-height="1058"
     id="namedview344"
     showgrid="false"
     inkscape:zoom="1.2361274"
     inkscape:cx="244.40513"
     inkscape:cy="204.07441"
     inkscape:window-x="0"
     inkscape:window-y="0"
     inkscape:window-maximized="1"
     inkscape:current-layer="svg2" />
  <defs
     id="defs4">
    <marker
       inkscape:stockid="Arrow1Mstart"
       orient="auto"
       refY="0.0"
       refX="0.0"
       id="Arrow1Mstart"
       style="overflow:visible">
      <path
         id="path4105"
         d="M 0.0,0.0 L 5.0,-5.0 L -12.5,0.0 L 5.0,5.0 L 0.0,0.0 z "
         style="fill-rule:evenodd;stroke:#000000;stroke-width:1.0pt"
         transform="scale(0.4) translate(10,0)" />
    </marker>
    <marker
       inkscape:stockid="Arrow1Mend"
       orient="auto"
       refY="0.0"
       refX="0.0"
       id="Arrow1Mend"
       style="overflow:visible;">
      <path
         id="path4108"
         d="M 0.0,0.0 L 5.0,-5.0 L -12.5,0.0 L 5.0,5.0 L 0.0,0.0 z "
         style="fill-rule:evenodd;stroke:#000000;stroke-width:1.0pt;"
         transform="scale(0.4) rotate(180) translate(10,0)" />
    </marker>
    <style
       type="text/css"
       id="style6">
*{stroke-linecap:butt;stroke-linejoin:round;}
  </style>
    <marker
       style="overflow:visible"
       id="Arrow1Mstartn"
       refX="0"
       refY="0"
       orient="auto"
       inkscape:stockid="Arrow1Mstartn">
      <path
         transform="matrix(0.4,0,0,0.4,4,0)"
         style="fill:#ffffff;fill-rule:evenodd;stroke:#ffffff;stroke-width:1pt"
         d="M 0,0 5,-5 -12.5,0 5,5 0,0 z"
         id="path4055"
         inkscape:connector-curvature="0" />
    </marker>
    <marker
       style="overflow:visible"
       id="Arrow1Mendu"
       refX="0"
       refY="0"
       orient="auto"
       inkscape:stockid="Arrow1Mendu">
      <path
         transform="matrix(-0.4,0,0,-0.4,-4,0)"
         style="fill:#ffffff;fill-rule:evenodd;stroke:#ffffff;stroke-width:1pt"
         d="M 0,0 5,-5 -12.5,0 5,5 0,0 z"
         id="path4058"
         inkscape:connector-curvature="0" />
    </marker>
  </defs>
  <g
     id="figure_1">
    <g
       id="patch_1">
      <path
         d=" M0 432 L576 432 L576 0 L0 0 L0 432"
         style="fill:none;"
         id="path10" />
    </g>
    <g
       id="axes_1">
      <g
         id="patch_2">
        <path
           d=" M29.785 336.788 L557.099 336.788 L557.099 73.1316 L29.785 73.1316 L29.785 336.788"
           style="fill:none;"
           id="path14" />
      </g>
      <g
         id="line2d_1">
        <path
           clip-path="url(#p4e5c5a9609)"
           d=" M29.785 336.788 L33.9046 290.362 L38.0243 271.391 L42.1439 257.012 L46.2635 245.04 L50.3832 234.625 L54.5028 225.33 L58.6225 216.894 L62.7421 209.146 L66.8617 201.969 L70.9814 195.274 L75.101 188.997 L79.2206 183.087 L83.3403 177.502 L87.4599 172.209 L91.5796 167.181 L95.6992 162.396 L99.8188 157.833 L103.938 153.476 L108.058 149.311 L112.178 145.325 L116.297 141.507 L120.417 137.848 L128.656 130.971 L136.896 124.637 L145.135 118.798 L153.374 113.414 L161.613 108.455 L169.853 103.892 L178.092 99.7034 L186.331 95.8688 L194.57 92.372 L202.81 89.1985 L211.049 86.3361 L219.288 83.7742 L227.528 81.5038 L235.767 79.5171 L244.006 77.8077 L252.245 76.37 L260.485 75.1995 L268.724 74.2928 L276.963 73.6471 L285.203 73.2604 L293.442 73.1316 L301.681 73.2604 L309.92 73.6471 L318.16 74.2928 L326.399 75.1995 L334.638 76.37 L342.877 77.8077 L351.117 79.5171 L359.356 81.5038 L367.595 83.7742 L375.835 86.3361 L384.074 89.1985 L392.313 92.372 L400.552 95.8688 L408.792 99.7034 L417.031 103.892 L425.27 108.455 L433.509 113.414 L441.749 118.798 L449.988 124.637 L458.227 130.971 L466.467 137.848 L470.586 141.507 L474.706 145.325 L478.825 149.311 L482.945 153.476 L487.065 157.833 L491.184 162.396 L495.304 167.181 L499.424 172.209 L503.543 177.502 L507.663 183.087 L511.783 188.997 L515.902 195.274 L520.022 201.969 L524.141 209.146 L528.261 216.894 L532.381 225.33 L536.5 234.625 L540.62 245.04 L544.74 257.012 L548.859 271.391 L552.979 290.362 L557.099 336.788 L557.099 336.788"
           style="fill:none;stroke:#ffffff;stroke-linecap:square;stroke-width:2.0;"
           id="path17" />
      </g>
      <g
         id="line2d_3">
        <path
           clip-path="url(#p4e5c5a9609)"
           d=" M29.785 314.669 L33.9046 265.764 L38.0243 223.652 L42.1439 217.588 L46.2635 243.344 L50.3832 278.654 L54.5028 306.893 L58.6225 323.718 L62.7421 331.829 L66.8617 335.13 L70.9814 336.293 L75.101 336.655 L83.3403 336.781 L165.733 336.788 L557.099 336.788 L557.099 336.788"
           style="fill:none;stroke:#f77189;stroke-linecap:square;stroke-width:2.0;"
           id="path23" />
      </g>
      <g
         id="line2d_5">
        <path
           clip-path="url(#p4e5c5a9609)"
           d=" M29.785 336.787 L38.0243 336.663 L42.1439 336.23 L46.2635 334.947 L50.3832 331.967 L54.5028 326.353 L58.6225 317.588 L62.7421 306.13 L66.8617 293.632 L70.9814 282.571 L75.101 275.386 L79.2206 273.585 L83.3403 277.249 L87.4599 285.155 L91.5796 295.361 L95.6992 305.899 L99.8188 315.304 L103.938 322.801 L108.058 328.239 L112.178 331.87 L116.297 334.118 L120.417 335.417 L124.537 336.121 L128.656 336.48 L136.896 336.732 L153.374 336.787 L557.099 336.788 L557.099 336.788"
           style="fill:none;stroke:#d58c32;stroke-linecap:square;stroke-width:2.0;"
           id="path29" />
      </g>
      <g
         id="line2d_7">
        <path
           clip-path="url(#p4e5c5a9609)"
           d=" M29.785 336.788 L75.101 336.72 L79.2206 336.615 L83.3403 336.387 L87.4599 335.932 L91.5796 335.099 L95.6992 333.691 L99.8188 331.491 L103.938 328.307 L108.058 324.041 L112.178 318.752 L116.297 312.707 L120.417 306.381 L124.537 300.406 L128.656 295.465 L132.776 292.159 L136.896 290.888 L141.015 291.771 L145.135 294.63 L149.254 299.047 L153.374 304.454 L161.613 315.905 L165.733 321.016 L169.853 325.347 L173.972 328.811 L178.092 331.438 L182.212 333.335 L186.331 334.641 L190.451 335.502 L194.57 336.045 L198.69 336.374 L206.929 336.673 L219.288 336.775 L289.322 336.788 L557.099 336.788 L557.099 336.788"
           style="fill:none;stroke:#a4a031;stroke-linecap:square;stroke-width:2.0;"
           id="path35" />
      </g>
      <g
         id="line2d_9">
        <path
           clip-path="url(#p4e5c5a9609)"
           d=" M29.785 336.788 L136.896 336.701 L145.135 336.456 L149.254 336.183 L153.374 335.734 L157.494 335.029 L161.613 333.973 L165.733 332.465 L169.853 330.412 L173.972 327.748 L178.092 324.461 L182.212 320.608 L186.331 316.335 L194.57 307.525 L198.69 303.634 L202.81 300.536 L206.929 298.516 L211.049 297.761 L215.169 298.332 L219.288 300.161 L223.408 303.056 L227.528 306.741 L239.887 319.352 L244.006 323.16 L248.126 326.472 L252.245 329.225 L256.365 331.417 L260.485 333.092 L264.604 334.324 L268.724 335.196 L272.844 335.791 L276.963 336.183 L285.203 336.585 L297.561 336.757 L334.638 336.788 L557.099 336.788 L557.099 336.788"
           style="fill:none;stroke:#50b131;stroke-linecap:square;stroke-width:2.0;"
           id="path41" />
      </g>
      <g
         id="line2d_11">
        <path
           clip-path="url(#p4e5c5a9609)"
           d=" M29.785 336.788 L211.049 336.721 L219.288 336.56 L227.528 336.116 L231.647 335.69 L235.767 335.053 L239.887 334.135 L244.006 332.859 L248.126 331.154 L252.245 328.963 L256.365 326.259 L260.485 323.063 L264.604 319.451 L276.963 307.831 L281.083 304.508 L285.203 301.905 L289.322 300.244 L293.442 299.673 L297.561 300.244 L301.681 301.905 L305.801 304.508 L309.92 307.831 L314.04 311.608 L322.279 319.451 L326.399 323.063 L330.519 326.259 L334.638 328.963 L338.758 331.154 L342.877 332.859 L346.997 334.135 L351.117 335.053 L355.236 335.69 L359.356 336.116 L367.595 336.56 L375.835 336.721 L396.433 336.787 L557.099 336.788 L557.099 336.788"
           style="fill:none;stroke:#34ae91;stroke-linecap:square;stroke-width:2.0;"
           id="path47" />
      </g>
      <g
         id="line2d_13">
        <path
           clip-path="url(#p4e5c5a9609)"
           d=" M29.785 336.788 L293.442 336.728 L301.681 336.585 L309.92 336.183 L314.04 335.791 L318.16 335.196 L322.279 334.324 L326.399 333.092 L330.519 331.417 L334.638 329.225 L338.758 326.472 L342.877 323.16 L346.997 319.352 L359.356 306.741 L363.476 303.056 L367.595 300.161 L371.715 298.332 L375.835 297.761 L379.954 298.516 L384.074 300.536 L388.193 303.634 L392.313 307.525 L404.672 320.608 L408.792 324.461 L412.911 327.748 L417.031 330.412 L421.151 332.465 L425.27 333.973 L429.39 335.029 L433.509 335.734 L437.629 336.183 L441.749 336.456 L449.988 336.701 L466.467 336.785 L557.099 336.788 L557.099 336.788"
           style="fill:none;stroke:#37abb5;stroke-linecap:square;stroke-width:2.0;"
           id="path53" />
      </g>
      <g
         id="line2d_15">
        <path
           clip-path="url(#p4e5c5a9609)"
           d=" M29.785 336.788 L375.835 336.73 L384.074 336.566 L388.193 336.374 L392.313 336.045 L396.433 335.502 L400.552 334.641 L404.672 333.335 L408.792 331.438 L412.911 328.811 L417.031 325.347 L421.151 321.016 L425.27 315.905 L437.629 299.047 L441.749 294.63 L445.868 291.771 L449.988 290.888 L454.108 292.159 L458.227 295.465 L462.347 300.406 L466.467 306.381 L470.586 312.707 L474.706 318.752 L478.825 324.041 L482.945 328.307 L487.065 331.491 L491.184 333.691 L495.304 335.099 L499.424 335.932 L503.543 336.387 L507.663 336.615 L515.902 336.764 L548.859 336.788 L557.099 336.788 L557.099 336.788"
           style="fill:none;stroke:#3ba3ec;stroke-linecap:square;stroke-width:2.0;"
           id="path59" />
      </g>
      <g
         id="line2d_17">
        <path
           clip-path="url(#p4e5c5a9609)"
           d=" M29.785 336.788 L449.988 336.732 L458.227 336.48 L462.347 336.121 L466.467 335.417 L470.586 334.118 L474.706 331.87 L478.825 328.239 L482.945 322.801 L487.065 315.304 L491.184 305.899 L495.304 295.361 L499.424 285.155 L503.543 277.249 L507.663 273.585 L511.783 275.386 L515.902 282.571 L520.022 293.632 L524.141 306.13 L528.261 317.588 L532.381 326.353 L536.5 331.967 L540.62 334.947 L544.74 336.23 L548.859 336.663 L557.099 336.787 L557.099 336.787"
           style="fill:none;stroke:#bb83f4;stroke-linecap:square;stroke-width:2.0;"
           id="path65" />
      </g>
      <g
         id="line2d_19">
        <path
           clip-path="url(#p4e5c5a9609)"
           d=" M29.785 336.788 L507.663 336.756 L511.783 336.655 L515.902 336.293 L520.022 335.13 L524.141 331.829 L528.261 323.718 L532.381 306.893 L536.5 278.654 L540.62 243.344 L544.74 217.588 L548.859 223.652 L552.979 265.764 L557.099 314.669 L557.099 314.669"
           style="fill:none;stroke:#f564d4;stroke-linecap:square;stroke-width:2.0;"
           id="path71" />
      </g>
      <g
         id="line2d_20">
        <path
           d=" M42.6893 255.314 L80.139 181.815 L138.468 123.486 L211.967 86.0359 L293.442 73.1316 L374.916 86.0359 L448.415 123.486 L506.745 181.815 L544.194 255.314"
           style="fill:none;"
           id="path74" />
        <defs
           id="defs76">
          <path
             d=" M0 3 C0.795609 3 1.55874 2.6839 2.12132 2.12132 C2.6839 1.55874 3 0.795609 3 0 C3 -0.795609 2.6839 -1.55874 2.12132 -2.12132 C1.55874 -2.6839 0.795609 -3 0 -3 C-0.795609 -3 -1.55874 -2.6839 -2.12132 -2.12132 C-2.6839 -1.55874 -3 -0.795609 -3 0 C-3 0.795609 -2.6839 1.55874 -2.12132 2.12132 C-1.55874 2.6839 -0.795609 3 0 3 z "
             id="ma70a62fa32"
             style="stroke:#000000;stroke-width:0.5;" />
        </defs>
        <g
           id="g79">
          <use
             style="fill:#ffffff;stroke:#000000;stroke-width:0.5;"
             x="42.6892821415"
             xlink:href="#ma70a62fa32"
             y="255.313967521"
             id="use81" />
          <use
             style="fill:#ffffff;stroke:#000000;stroke-width:0.5;"
             x="80.1389675207"
             xlink:href="#ma70a62fa32"
             y="181.814821568"
             id="use83" />
          <use
             style="fill:#ffffff;stroke:#000000;stroke-width:0.5;"
             x="138.468220005"
             xlink:href="#ma70a62fa32"
             y="123.485569083"
             id="use85" />
          <use
             style="fill:#ffffff;stroke:#000000;stroke-width:0.5;"
             x="211.967365958"
             xlink:href="#ma70a62fa32"
             y="86.035883704"
             id="use87" />
          <use
             style="fill:#ffffff;stroke:#000000;stroke-width:0.5;"
             x="293.441796875"
             xlink:href="#ma70a62fa32"
             y="73.1316015625"
             id="use89" />
          <use
             style="fill:#ffffff;stroke:#000000;stroke-width:0.5;"
             x="374.916227792"
             xlink:href="#ma70a62fa32"
             y="86.035883704"
             id="use91" />
          <use
             style="fill:#ffffff;stroke:#000000;stroke-width:0.5;"
             x="448.415373745"
             xlink:href="#ma70a62fa32"
             y="123.485569083"
             id="use93" />
          <use
             style="fill:#ffffff;stroke:#000000;stroke-width:0.5;"
             x="506.744626229"
             xlink:href="#ma70a62fa32"
             y="181.814821568"
             id="use95" />
          <use
             style="fill:#ffffff;stroke:#000000;stroke-width:0.5;"
             x="544.194311608"
             xlink:href="#ma70a62fa32"
             y="255.313967521"
             id="use97" />
        </g>
      </g>
      <g
         id="patch_3">
        <path
           d=" M29.785 73.1316 L557.099 73.1316"
           style="fill:none;stroke:#ffffff;stroke-linecap:square;stroke-linejoin:miter;"
           id="path100" />
      </g>
      <g
         id="patch_4">
        <path
           d=" M557.099 336.788 L557.099 73.1316"
           style="fill:none;stroke:#ffffff;stroke-linecap:square;stroke-linejoin:miter;"
           id="path103" />
      </g>
      <g
         id="patch_5">
        <path
           d=" M29.785 336.788 L557.099 336.788"
           style="fill:none;stroke:#ffffff;stroke-linecap:square;stroke-linejoin:miter;"
           id="path106" />
      </g>
      <g
         id="patch_6">
        <path
           d=" M29.785 336.788 L29.785 73.1316"
           style="fill:none;stroke:#ffffff;stroke-linecap:square;stroke-linejoin:miter;"
           id="path109" />
      </g>
      <g
         id="matplotlib.axis_1">
        <g
           id="xtick_1">
          <g
             id="line2d_21">
            <defs
               id="defs114">
              <path
                 d=" M0 0 L0 -4"
                 id="m581b5f6fe2"
                 style="stroke:#ffffff;stroke-width:0.5;" />
            </defs>
            <g
               id="g117">
              <use
                 style="fill:#ffffff;stroke:#ffffff;stroke-width:0.5;"
                 x="29.785"
                 xlink:href="#m581b5f6fe2"
                 y="336.788398438"
                 id="use119" />
            </g>
          </g>
          <g
             id="line2d_22">
            <defs
               id="defs122">
              <path
                 d=" M0 0 L0 4"
                 id="m3fed0b42bb"
                 style="stroke:#ffffff;stroke-width:0.5;" />
            </defs>
            <g
               id="g125">
              <use
                 style="fill:#ffffff;stroke:#ffffff;stroke-width:0.5;"
                 x="29.785"
                 xlink:href="#m3fed0b42bb"
                 y="73.1316015625"
                 id="use127" />
            </g>
          </g>
          <g
             id="text_1">
            <!-- $0$ -->
            <defs
               id="defs130">
              <path
                 d=" M25 -2.20312 Q12.75 -2.20312 8.32812 7.875 Q3.90625 17.9688 3.90625 31.8906 Q3.90625 40.5781 5.48438 48.2344 Q7.07812 55.9062 11.7812 61.25 Q16.5 66.6094 25 66.6094 Q31.5938 66.6094 35.7812 63.375 Q39.9844 60.1562 42.1875 55.0469 Q44.3906 49.9531 45.1875 44.1094 Q46 38.2812 46 31.8906 Q46 23.2969 44.4062 15.7969 Q42.8281 8.29688 38.1875 3.04688 Q33.5469 -2.20312 25 -2.20312 M25 0.390625 Q30.5625 0.390625 33.2969 6.09375 Q36.0312 11.8125 36.6719 18.75 Q37.3125 25.6875 37.3125 33.5 Q37.3125 41.0156 36.6719 47.3594 Q36.0312 53.7188 33.3125 58.8594 Q30.6094 64.0156 25 64.0156 Q19.3438 64.0156 16.6094 58.8281 Q13.875 53.6562 13.2344 47.3281 Q12.5938 41.0156 12.5938 33.5 Q12.5938 27.9375 12.8594 23 Q13.1406 18.0625 14.3125 12.8125 Q15.4844 7.5625 18.0938 3.96875 Q20.7031 0.390625 25 0.390625"
                 id="Cmr10-30" />
            </defs>
            <g
               style="fill:#ffffff;"
               transform="translate(23.785 359.024648437)scale(0.24 -0.24)"
               id="g133">
              <use
                 transform="translate(0.0 0.390625)"
                 xlink:href="#Cmr10-30"
                 id="use135" />
            </g>
          </g>
        </g>
        <g
           id="xtick_2">
          <g
             id="line2d_23">
            <g
               id="g139">
              <use
                 style="fill:#ffffff;stroke:#ffffff;stroke-width:0.5;"
                 x="293.441796875"
                 xlink:href="#m581b5f6fe2"
                 y="336.788398438"
                 id="use141" />
            </g>
          </g>
          <g
             id="line2d_24">
            <g
               id="g144">
              <use
                 style="fill:#ffffff;stroke:#ffffff;stroke-width:0.5;"
                 x="293.441796875"
                 xlink:href="#m3fed0b42bb"
                 y="73.1316015625"
                 id="use146" />
            </g>
          </g>
          <g
             id="text_2">
            <!-- $\frac{1}{2}$ -->
            <defs
               id="defs149">
              <path
                 d=" M9.28125 0 L9.28125 3.51562 Q21.7812 3.51562 21.7812 6.6875 L21.7812 59.1875 Q16.6094 56.6875 8.6875 56.6875 L8.6875 60.2031 Q20.9531 60.2031 27.2031 66.6094 L28.6094 66.6094 Q28.9531 66.6094 29.2656 66.3281 Q29.5938 66.0625 29.5938 65.7188 L29.5938 6.6875 Q29.5938 3.51562 42.0938 3.51562 L42.0938 0 z "
                 id="Cmr10-31" />
              <path
                 d=" M4.98438 0 L4.98438 2.6875 Q4.98438 2.9375 5.17188 3.21875 L20.7031 20.4062 Q24.2188 24.2188 26.4062 26.7969 Q28.6094 29.3906 30.75 32.7656 Q32.9062 36.1406 34.1562 39.625 Q35.4062 43.1094 35.4062 47.0156 Q35.4062 51.125 33.8906 54.8594 Q32.375 58.5938 29.375 60.8438 Q26.375 63.0938 22.125 63.0938 Q17.7812 63.0938 14.3125 60.4688 Q10.8438 57.8594 9.42188 53.7188 Q9.8125 53.8125 10.5 53.8125 Q12.75 53.8125 14.3281 52.2969 Q15.9219 50.7812 15.9219 48.3906 Q15.9219 46.0938 14.3281 44.5 Q12.75 42.9219 10.5 42.9219 Q8.15625 42.9219 6.5625 44.5469 Q4.98438 46.1875 4.98438 48.3906 Q4.98438 52.1562 6.39062 55.4375 Q7.8125 58.7344 10.4688 61.2969 Q13.1406 63.875 16.4844 65.2344 Q19.8281 66.6094 23.5781 66.6094 Q29.2969 66.6094 34.2188 64.1875 Q39.1562 61.7656 42.0312 57.3438 Q44.9219 52.9375 44.9219 47.0156 Q44.9219 42.6719 43.0156 38.7656 Q41.1094 34.8594 38.125 31.6562 Q35.1562 28.4688 30.5156 24.4062 Q25.875 20.3594 24.4219 19 L13.0938 8.10938 L22.7031 8.10938 Q29.7812 8.10938 34.5469 8.21875 Q39.3125 8.34375 39.5938 8.59375 Q40.7656 9.85938 42 17.8281 L44.9219 17.8281 L42.0938 0 z "
                 id="Cmr10-32" />
            </defs>
            <g
               style="fill:#ffffff;"
               transform="translate(287.681796875 361.188398438)scale(0.24 -0.24)"
               id="g153">
              <use
                 transform="translate(0.0 38.3734375)scale(0.7)"
                 xlink:href="#Cmr10-31"
                 id="use155" />
              <use
                 transform="translate(0.0 -39.503125)scale(0.7)"
                 xlink:href="#Cmr10-32"
                 id="use157" />
              <path
                 d=" M0 13.3734 L0 19.6234 L35 19.6234 L35 13.3734 L0 13.3734 z "
                 id="path159" />
            </g>
          </g>
        </g>
        <g
           id="xtick_3">
          <g
             id="line2d_25">
            <g
               id="g163">
              <use
                 style="fill:#ffffff;stroke:#ffffff;stroke-width:0.5;"
                 x="557.09859375"
                 xlink:href="#m581b5f6fe2"
                 y="336.788398438"
                 id="use165" />
            </g>
          </g>
          <g
             id="line2d_26">
            <g
               id="g168">
              <use
                 style="fill:#ffffff;stroke:#ffffff;stroke-width:0.5;"
                 x="557.09859375"
                 xlink:href="#m3fed0b42bb"
                 y="73.1316015625"
                 id="use170" />
            </g>
          </g>
          <g
             id="text_3">
            <!-- $1$ -->
            <g
               style="fill:#ffffff;"
               transform="translate(551.09859375 359.024648437)scale(0.24 -0.24)"
               id="g173">
              <use
                 transform="translate(0.0 0.390625)"
                 xlink:href="#Cmr10-31"
                 id="use175" />
            </g>
          </g>
        </g>
        <g
           id="text_4">
          <!-- $\hat{p}=H/(T+H)$ -->
          <defs
             id="defs178">
            <path
               d=" M13.4844 53.8125 L11.5312 55.9062 L25 69.3906 L38.375 55.9062 L36.375 53.8125 L25 63.8125 z "
               id="Cmr10-5e" />
            <path
               d=" M-2.48438 -19.3906 Q-3.42188 -19.3906 -3.42188 -18.1094 Q-3.07812 -15.9219 -2.09375 -15.9219 Q1.03125 -15.9219 2.26562 -15.3594 Q3.51562 -14.7969 4.20312 -12.5 L15.4844 32.5156 Q16.2188 34.375 16.2188 37.3125 Q16.2188 41.6094 13.2812 41.6094 Q10.1562 41.6094 8.64062 37.8594 Q7.125 34.125 5.71875 28.4219 Q5.71875 27.7812 4.89062 27.7812 L3.71875 27.7812 Q3.46875 27.7812 3.17188 28.1406 Q2.875 28.5156 2.875 28.8125 Q3.95312 33.1562 4.95312 36.1719 Q5.95312 39.2031 8.07812 41.6875 Q10.2031 44.1875 13.375 44.1875 Q16.7969 44.1875 19.375 42.25 Q21.9688 40.3281 22.7031 37.0156 Q25.4375 40.1875 28.75 42.1875 Q32.0781 44.1875 35.5938 44.1875 Q39.7969 44.1875 42.8906 41.9375 Q46 39.7031 47.5625 36.0625 Q49.125 32.4219 49.125 28.2188 Q49.125 21.7812 45.8281 14.8906 Q42.5312 8.01562 36.8906 3.4375 Q31.25 -1.125 24.8125 -1.125 Q21.875 -1.125 19.5 0.53125 Q17.1406 2.20312 15.8281 4.89062 L11.2812 -12.8906 Q11.0312 -14.3594 10.9844 -14.5938 Q10.9844 -15.9219 17.5781 -15.9219 Q18.6094 -15.9219 18.6094 -17.1875 Q18.2656 -18.5 18.0469 -18.9375 Q17.8281 -19.3906 16.8906 -19.3906 z  M24.9062 1.51562 Q28.375 1.51562 31.3438 4.375 Q34.3281 7.23438 36.1875 10.7969 Q37.5469 13.4844 38.7344 17.3594 Q39.9375 21.2344 40.8125 25.625 Q41.7031 30.0312 41.7031 32.625 Q41.7031 34.9062 41.0938 36.9062 Q40.4844 38.9219 39.0938 40.2656 Q37.7031 41.6094 35.4062 41.6094 Q31.7344 41.6094 28.4844 38.9844 Q25.25 36.375 22.6094 32.5156 L22.6094 32.1719 L17.0938 10.1094 Q17.7812 6.54688 19.7344 4.03125 Q21.6875 1.51562 24.9062 1.51562"
               id="Cmmi10-70" />
            <path
               d=" M31 -24.8125 Q25.4375 -20.4062 21.4062 -14.7188 Q17.3906 -9.03125 14.8125 -2.57812 Q12.25 3.85938 10.9844 10.8906 Q9.71875 17.9219 9.71875 25 Q9.71875 32.1719 10.9844 39.2031 Q12.25 46.2344 14.8594 52.7344 Q17.4844 59.2344 21.5312 64.8906 Q25.5938 70.5625 31 74.8125 Q31 75 31.5 75 L32.4219 75 Q32.7188 75 32.9531 74.7344 Q33.2031 74.4688 33.2031 74.125 Q33.2031 73.6875 33.0156 73.4844 Q28.125 68.7031 24.875 63.2344 Q21.625 57.7656 19.6406 51.5781 Q17.6719 45.4062 16.7969 38.7812 Q15.9219 32.1719 15.9219 25 Q15.9219 -6.78125 32.9062 -23.2969 Q33.2031 -23.5781 33.2031 -24.125 Q33.2031 -24.3594 32.9375 -24.6719 Q32.6719 -25 32.4219 -25 L31.5 -25 Q31 -25 31 -24.8125"
               id="Cmr10-28" />
            <path
               d=" M7.51562 23 Q6.6875 23 6.14062 23.625 Q5.60938 24.2656 5.60938 25 Q5.60938 25.7344 6.14062 26.3594 Q6.6875 27 7.51562 27 L36.9219 27 L36.9219 56.5 Q36.9219 57.2812 37.5 57.7812 Q38.0938 58.2969 38.9219 58.2969 Q39.6562 58.2969 40.2812 57.7812 Q40.9219 57.2812 40.9219 56.5 L40.9219 27 L70.3125 27 Q71.0469 27 71.5781 26.3594 Q72.125 25.7344 72.125 25 Q72.125 24.2656 71.5781 23.625 Q71.0469 23 70.3125 23 L40.9219 23 L40.9219 -6.5 Q40.9219 -7.28125 40.2812 -7.78125 Q39.6562 -8.29688 38.9219 -8.29688 Q38.0938 -8.29688 37.5 -7.78125 Q36.9219 -7.28125 36.9219 -6.5 L36.9219 23 z "
               id="Cmr10-2b" />
            <path
               d=" M5.60938 -23 Q5.60938 -22.7031 5.71875 -22.6094 L40.4844 73.7812 Q40.6719 74.3594 41.1562 74.6719 Q41.6562 75 42.2812 75 Q43.1719 75 43.7188 74.4531 Q44.2812 73.9219 44.2812 73 L44.2812 72.6094 L9.51562 -23.7812 Q8.9375 -25 7.625 -25 Q6.78125 -25 6.1875 -24.4062 Q5.60938 -23.8281 5.60938 -23"
               id="Cmmi10-3d" />
            <path
               d=" M4.59375 1.3125 Q4.64062 1.5625 4.8125 2.1875 Q4.98438 2.82812 5.25 3.17188 Q5.51562 3.51562 6 3.51562 Q14.5938 3.51562 17.3906 4 Q20.0625 4.6875 20.6094 6.89062 L34.2812 61.8125 Q34.7188 63.0312 34.7188 64.0156 Q34.7188 64.7969 31.2031 64.7969 L25.3906 64.7969 Q18.7031 64.7969 15.0625 62.7344 Q11.4219 60.6875 9.71875 57.3125 Q8.01562 53.9531 5.32812 46.2969 Q4.98438 45.4062 4.29688 45.4062 L3.42188 45.4062 Q2.39062 45.4062 2.39062 46.6875 L9.51562 67.3906 Q9.71875 68.3125 10.5 68.3125 L69.5781 68.3125 Q70.6094 68.3125 70.6094 67 L67.2812 46.2969 Q67.2812 46 66.9375 45.7031 Q66.6094 45.4062 66.3125 45.4062 L65.375 45.4062 Q64.4062 45.4062 64.4062 46.6875 Q65.4844 53.7656 65.4844 56.6875 Q65.4844 60.2031 64.0156 62 Q62.5469 63.8125 60.2031 64.2969 Q57.8594 64.7969 54.1094 64.7969 L48.1875 64.7969 Q45.5156 64.7969 44.5781 64.2969 Q43.6562 63.8125 43.0156 61.375 L29.2969 6.5 Q29.25 6.29688 29.2188 6.09375 Q29.2031 5.90625 29.1094 5.60938 Q29.1094 4.34375 30.6094 4 Q33.2031 3.51562 41.7031 3.51562 Q42.6719 3.51562 42.6719 2.20312 Q42.3281 0.78125 42.125 0.390625 Q41.9375 0 41.0156 0 L5.60938 0 Q4.59375 0 4.59375 1.3125"
               id="Cmmi10-54" />
            <path
               d=" M4.6875 0 Q3.71875 0 3.71875 1.3125 Q3.76562 1.5625 3.90625 2.17188 Q4.04688 2.78125 4.3125 3.14062 Q4.59375 3.51562 4.98438 3.51562 Q11.0781 3.51562 13.4844 4.20312 Q14.7969 4.64062 15.375 6.89062 L29.1094 61.8125 Q29.2969 62.7969 29.2969 63.1875 Q29.2969 64.2656 28.0781 64.4062 Q26.2188 64.7969 20.9062 64.7969 Q19.9219 64.7969 19.9219 66.1094 Q20.2656 67.3906 20.4531 67.8438 Q20.6562 68.3125 21.5781 68.3125 L48.4844 68.3125 Q49.5156 68.3125 49.5156 67 Q49.4688 66.75 49.3125 66.1562 Q49.1719 65.5781 48.9219 65.1875 Q48.6875 64.7969 48.1875 64.7969 Q42.0938 64.7969 39.7031 64.1094 Q38.375 63.625 37.7969 61.375 L31.7812 37.3125 L61.8125 37.3125 L67.9219 61.8125 Q68.1094 62.7969 68.1094 63.1875 Q68.1094 64.2656 66.8906 64.4062 Q64.9844 64.7969 59.7188 64.7969 Q58.6875 64.7969 58.6875 66.1094 Q59.0312 67.3906 59.2188 67.8438 Q59.4219 68.3125 60.4062 68.3125 L87.3125 68.3125 Q88.2812 68.3125 88.2812 67 Q88.2344 66.75 88.0781 66.1406 Q87.9375 65.5312 87.6719 65.1562 Q87.4062 64.7969 87.0156 64.7969 Q80.9062 64.7969 78.5156 64.1094 Q77.2031 63.6719 76.6094 61.375 L62.8906 6.5 Q62.7031 5.51562 62.7031 5.07812 Q62.7031 4.04688 63.9219 3.90625 Q65.8281 3.51562 71.0938 3.51562 Q72.125 3.51562 72.125 2.20312 Q71.8281 1.03125 71.5312 0.515625 Q71.2344 0 70.4062 0 L43.5 0 Q42.4844 0 42.4844 1.3125 Q42.6719 2.04688 42.7656 2.39062 Q42.875 2.73438 43.1406 3.125 Q43.4062 3.51562 43.7969 3.51562 Q49.9062 3.51562 52.2969 4.20312 Q53.6094 4.64062 54.2031 6.89062 L60.8906 33.7969 L30.9062 33.7969 L24.125 6.5 Q23.875 5.28125 23.875 5.07812 Q23.875 4.04688 25.0938 3.90625 Q27 3.51562 32.3281 3.51562 Q33.2969 3.51562 33.2969 2.20312 Q32.9531 0.875 32.7344 0.4375 Q32.5156 0 31.5938 0 z "
               id="Cmmi10-48" />
            <path
               d=" M7.51562 13.2812 Q6.6875 13.2812 6.14062 13.9062 Q5.60938 14.5469 5.60938 15.2812 Q5.60938 16.1094 6.14062 16.6875 Q6.6875 17.2812 7.51562 17.2812 L70.3125 17.2812 Q71.0469 17.2812 71.5781 16.6875 Q72.125 16.1094 72.125 15.2812 Q72.125 14.5469 71.5781 13.9062 Q71.0469 13.2812 70.3125 13.2812 z  M7.51562 32.7188 Q6.6875 32.7188 6.14062 33.2969 Q5.60938 33.8906 5.60938 34.7188 Q5.60938 35.4531 6.14062 36.0781 Q6.6875 36.7188 7.51562 36.7188 L70.3125 36.7188 Q71.0469 36.7188 71.5781 36.0781 Q72.125 35.4531 72.125 34.7188 Q72.125 33.8906 71.5781 33.2969 Q71.0469 32.7188 70.3125 32.7188 z "
               id="Cmr10-3d" />
            <path
               d=" M6.5 -25 Q5.60938 -25 5.60938 -24.125 Q5.60938 -23.6875 5.8125 -23.4844 Q22.9062 -6.78125 22.9062 25 Q22.9062 56.7812 6 73.2969 Q5.60938 73.5312 5.60938 74.125 Q5.60938 74.4688 5.875 74.7344 Q6.15625 75 6.5 75 L7.42188 75 Q7.71875 75 7.90625 74.8125 Q15.0938 69.1406 19.875 61.0312 Q24.6562 52.9375 26.875 43.75 Q29.1094 34.5781 29.1094 25 Q29.1094 17.9219 27.9062 11.0625 Q26.7031 4.20312 24.0938 -2.45312 Q21.4844 -9.125 17.4844 -14.7656 Q13.4844 -20.4062 7.90625 -24.8125 Q7.71875 -25 7.42188 -25 z "
               id="Cmr10-29" />
          </defs>
          <g
             style="fill:#ffffff;"
             transform="translate(184.361796875 403.028398438)scale(0.36 -0.36)"
             id="g189">
            <use
               transform="translate(0.46875 2.875)"
               xlink:href="#Cmr10-5e"
               id="use191" />
            <use
               xlink:href="#Cmmi10-70"
               id="use193" />
            <use
               transform="translate(67.8515625 0.0)"
               xlink:href="#Cmr10-3d"
               id="use195" />
            <use
               transform="translate(151.91015625 0.0)"
               xlink:href="#Cmmi10-48"
               id="use197" />
            <use
               transform="translate(235.015625 0.0)"
               xlink:href="#Cmmi10-3d"
               id="use199" />
            <use
               transform="translate(285.015625 0.0)"
               xlink:href="#Cmr10-28"
               id="use201" />
            <use
               transform="translate(323.833984375 0.0)"
               xlink:href="#Cmmi10-54"
               id="use203" />
            <use
               transform="translate(399.791015625 0.0)"
               xlink:href="#Cmr10-2b"
               id="use205" />
            <use
               transform="translate(483.849609375 0.0)"
               xlink:href="#Cmmi10-48"
               id="use207" />
            <use
               transform="translate(566.955078125 0.0)"
               xlink:href="#Cmr10-29"
               id="use209" />
          </g>
        </g>
      </g>
      <g
         id="matplotlib.axis_2">
        <g
           id="ytick_1">
          <g
             id="line2d_27">
            <defs
               id="defs214">
              <path
                 d=" M0 0 L4 0"
                 id="m1d47d1ef1f"
                 style="stroke:#ffffff;stroke-width:0.5;" />
            </defs>
            <g
               id="g217">
              <use
                 style="fill:#ffffff;stroke:#ffffff;stroke-width:0.5;"
                 x="29.785"
                 xlink:href="#m1d47d1ef1f"
                 y="336.788398438"
                 id="use219" />
            </g>
          </g>
          <g
             id="line2d_28">
            <defs
               id="defs222">
              <path
                 d=" M0 0 L-4 0"
                 id="m9e37919582"
                 style="stroke:#ffffff;stroke-width:0.5;" />
            </defs>
            <g
               id="g225">
              <use
                 style="fill:#ffffff;stroke:#ffffff;stroke-width:0.5;"
                 x="557.09859375"
                 xlink:href="#m9e37919582"
                 y="336.788398438"
                 id="use227" />
            </g>
          </g>
          <g
             id="text_5">
            <!-- $0$ -->
            <g
               style="fill:#ffffff;"
               transform="translate(13.785 343.410898438)scale(0.24 -0.24)"
               id="g230">
              <use
                 transform="translate(0.0 0.390625)"
                 xlink:href="#Cmr10-30"
                 id="use232" />
            </g>
          </g>
        </g>
        <g
           id="ytick_2">
          <g
             id="line2d_29">
            <g
               id="g236">
              <use
                 style="fill:#ffffff;stroke:#ffffff;stroke-width:0.5;"
                 x="29.785"
                 xlink:href="#m1d47d1ef1f"
                 y="270.874199219"
                 id="use238" />
            </g>
          </g>
          <g
             id="line2d_30">
            <g
               id="g241">
              <use
                 style="fill:#ffffff;stroke:#ffffff;stroke-width:0.5;"
                 x="557.09859375"
                 xlink:href="#m9e37919582"
                 y="270.874199219"
                 id="use243" />
            </g>
          </g>
          <g
             id="text_6">
            <!-- $\frac{1}{8}$ -->
            <defs
               id="defs246">
              <path
                 d=" M4.20312 15.1875 Q4.20312 21.1875 8.15625 25.7969 Q12.1094 30.4219 18.3125 33.5 L14.5938 35.8906 Q11.1875 38.1406 9.03125 41.875 Q6.89062 45.6094 6.89062 49.7031 Q6.89062 54.5 9.40625 58.3438 Q11.9219 62.2031 16.0938 64.4062 Q20.2656 66.6094 25 66.6094 Q29.4375 66.6094 33.5625 64.7969 Q37.7031 62.9844 40.3594 59.6094 Q43.0156 56.25 43.0156 51.6094 Q43.0156 48.25 41.4219 45.3594 Q39.8438 42.4844 37.0781 40.1875 Q34.3281 37.8906 31.2031 36.2812 L36.9219 32.625 Q40.875 30.0312 43.2812 25.8281 Q45.7031 21.625 45.7031 17 Q45.7031 11.5781 42.7969 7.125 Q39.8906 2.6875 35.1094 0.234375 Q30.3281 -2.20312 25 -2.20312 Q19.8281 -2.20312 15.0156 -0.09375 Q10.2031 2 7.20312 5.98438 Q4.20312 9.96875 4.20312 15.1875 M9.625 15.1875 Q9.625 11.2344 11.7969 7.95312 Q13.9688 4.6875 17.5312 2.82812 Q21.0938 0.984375 25 0.984375 Q30.8125 0.984375 35.5469 4.375 Q40.2812 7.76562 40.2812 13.375 Q40.2812 15.2812 39.5156 17.1562 Q38.7656 19.0469 37.4219 20.5781 Q36.0781 22.125 34.4219 23.0938 L21 31.7812 Q17.875 30.125 15.25 27.5781 Q12.6406 25.0469 11.125 21.875 Q9.625 18.7031 9.625 15.1875 M16.5 45.7031 L28.6094 37.8906 Q32.8125 40.3281 35.5 43.7969 Q38.1875 47.2656 38.1875 51.6094 Q38.1875 54.9844 36.2969 57.7812 Q34.4219 60.5938 31.3906 62.1562 Q28.375 63.7188 24.9062 63.7188 Q21.875 63.7188 18.7969 62.5469 Q15.7188 61.375 13.7188 59.0469 Q11.7188 56.7344 11.7188 53.6094 Q11.7188 48.9219 16.5 45.7031"
                 id="Cmr10-38" />
            </defs>
            <g
               style="fill:#ffffff;"
               transform="translate(14.265 276.034199219)scale(0.24 -0.24)"
               id="g249">
              <use
                 transform="translate(0.0 38.3734375)scale(0.7)"
                 xlink:href="#Cmr10-31"
                 id="use251" />
              <use
                 transform="translate(0.0 -39.503125)scale(0.7)"
                 xlink:href="#Cmr10-38"
                 id="use253" />
              <path
                 d=" M0 13.3734 L0 19.6234 L35 19.6234 L35 13.3734 L0 13.3734 z "
                 id="path255" />
            </g>
          </g>
        </g>
        <g
           id="ytick_3">
          <g
             id="line2d_31">
            <g
               id="g259">
              <use
                 style="fill:#ffffff;stroke:#ffffff;stroke-width:0.5;"
                 x="29.785"
                 xlink:href="#m1d47d1ef1f"
                 y="204.96"
                 id="use261" />
            </g>
          </g>
          <g
             id="line2d_32">
            <g
               id="g264">
              <use
                 style="fill:#ffffff;stroke:#ffffff;stroke-width:0.5;"
                 x="557.09859375"
                 xlink:href="#m9e37919582"
                 y="204.96"
                 id="use266" />
            </g>
          </g>
          <g
             id="text_7">
            <!-- $\frac{1}{4}$ -->
            <defs
               id="defs269">
              <path
                 d=" M2.78125 16.5 L2.78125 20.0156 L33.6875 66.1094 Q34.0312 66.6094 34.7188 66.6094 L36.1875 66.6094 Q37.3125 66.6094 37.3125 65.4844 L37.3125 20.0156 L47.125 20.0156 L47.125 16.5 L37.3125 16.5 L37.3125 6.6875 Q37.3125 4.64062 40.2344 4.07812 Q43.1719 3.51562 47.0156 3.51562 L47.0156 0 L19.4844 0 L19.4844 3.51562 Q23.3438 3.51562 26.2656 4.07812 Q29.2031 4.64062 29.2031 6.6875 L29.2031 16.5 z  M6.10938 20.0156 L29.7812 20.0156 L29.7812 55.4219 z "
                 id="Cmr10-34" />
            </defs>
            <g
               style="fill:#ffffff;"
               transform="translate(14.265 210.24)scale(0.24 -0.24)"
               id="g272">
              <use
                 transform="translate(0.0 38.3734375)scale(0.7)"
                 xlink:href="#Cmr10-31"
                 id="use274" />
              <use
                 transform="translate(0.0 -39.503125)scale(0.7)"
                 xlink:href="#Cmr10-34"
                 id="use276" />
              <path
                 d=" M0 13.3734 L0 19.6234 L35 19.6234 L35 13.3734 L0 13.3734 z "
                 id="path278" />
            </g>
          </g>
        </g>
        <g
           id="ytick_4">
          <g
             id="line2d_33">
            <g
               id="g282">
              <use
                 style="fill:#ffffff;stroke:#ffffff;stroke-width:0.5;"
                 x="29.785"
                 xlink:href="#m1d47d1ef1f"
                 y="139.045800781"
                 id="use284" />
            </g>
          </g>
          <g
             id="line2d_34">
            <g
               id="g287">
              <use
                 style="fill:#ffffff;stroke:#ffffff;stroke-width:0.5;"
                 x="557.09859375"
                 xlink:href="#m9e37919582"
                 y="139.045800781"
                 id="use289" />
            </g>
          </g>
          <g
             id="text_8">
            <!-- $\frac{3}{8}$ -->
            <defs
               id="defs292">
              <path
                 d=" M9.51562 7.71875 Q11.8594 4.29688 15.8125 2.64062 Q19.7812 0.984375 24.3125 0.984375 Q30.125 0.984375 32.5625 5.9375 Q35.0156 10.8906 35.0156 17.1875 Q35.0156 20.0156 34.5 22.8438 Q33.9844 25.6875 32.7656 28.125 Q31.5469 30.5625 29.4219 32.0312 Q27.2969 33.5 24.2188 33.5 L17.5781 33.5 Q16.7031 33.5 16.7031 34.4219 L16.7031 35.2969 Q16.7031 36.0781 17.5781 36.0781 L23.0938 36.5312 Q26.6094 36.5312 28.9219 39.1562 Q31.25 41.7969 32.3281 45.5781 Q33.4062 49.3594 33.4062 52.7812 Q33.4062 57.5625 31.1562 60.6406 Q28.9062 63.7188 24.3125 63.7188 Q20.5156 63.7188 17.0469 62.2812 Q13.5781 60.8438 11.5312 57.9062 Q11.7188 57.9531 11.8594 57.9844 Q12.0156 58.0156 12.2031 58.0156 Q14.4531 58.0156 15.9688 56.4531 Q17.4844 54.8906 17.4844 52.6875 Q17.4844 50.5312 15.9688 48.9688 Q14.4531 47.4062 12.2031 47.4062 Q10.0156 47.4062 8.45312 48.9688 Q6.89062 50.5312 6.89062 52.6875 Q6.89062 56.9844 9.46875 60.1562 Q12.0625 63.3281 16.1406 64.9688 Q20.2188 66.6094 24.3125 66.6094 Q27.3438 66.6094 30.7031 65.7031 Q34.0781 64.7969 36.8125 63.1094 Q39.5469 61.4219 41.2812 58.7812 Q43.0156 56.1562 43.0156 52.7812 Q43.0156 48.5781 41.1406 45.0156 Q39.2656 41.4531 35.9844 38.8594 Q32.7188 36.2812 28.8125 35.0156 Q33.1562 34.1875 37.0625 31.7344 Q40.9688 29.2969 43.3281 25.4844 Q45.7031 21.6875 45.7031 17.2812 Q45.7031 11.7656 42.6719 7.29688 Q39.6562 2.82812 34.7188 0.3125 Q29.7812 -2.20312 24.3125 -2.20312 Q19.625 -2.20312 14.9062 -0.40625 Q10.2031 1.375 7.20312 4.9375 Q4.20312 8.5 4.20312 13.4844 Q4.20312 15.9688 5.85938 17.625 Q7.51562 19.2812 10.0156 19.2812 Q11.625 19.2812 12.9688 18.5312 Q14.3125 17.7812 15.0625 16.4062 Q15.8281 15.0469 15.8281 13.4844 Q15.8281 11.0312 14.1094 9.375 Q12.4062 7.71875 10.0156 7.71875 z "
                 id="Cmr10-33" />
            </defs>
            <g
               style="fill:#ffffff;"
               transform="translate(14.265 144.325800781)scale(0.24 -0.24)"
               id="g295">
              <use
                 transform="translate(0.0 39.3734375)scale(0.7)"
                 xlink:href="#Cmr10-33"
                 id="use297" />
              <use
                 transform="translate(0.0 -40.045312499999994)scale(0.7)"
                 xlink:href="#Cmr10-38"
                 id="use299" />
              <path
                 d=" M0 12.8313 L0 19.0813 L35 19.0813 L35 12.8313 L0 12.8313 z "
                 id="path301" />
            </g>
          </g>
        </g>
        <g
           id="ytick_5">
          <g
             id="line2d_35">
            <g
               id="g305">
              <use
                 style="fill:#ffffff;stroke:#ffffff;stroke-width:0.5;"
                 x="29.785"
                 xlink:href="#m1d47d1ef1f"
                 y="73.1316015625"
                 id="use307" />
            </g>
          </g>
          <g
             id="line2d_36">
            <g
               id="g310">
              <use
                 style="fill:#ffffff;stroke:#ffffff;stroke-width:0.5;"
                 x="557.09859375"
                 xlink:href="#m9e37919582"
                 y="73.1316015625"
                 id="use312" />
            </g>
          </g>
          <g
             id="text_9">
            <!-- $\frac{1}{2}$ -->
            <g
               style="fill:#ffffff;"
               transform="translate(14.265 78.4116015625)scale(0.24 -0.24)"
               id="g315">
              <use
                 transform="translate(0.0 38.3734375)scale(0.7)"
                 xlink:href="#Cmr10-31"
                 id="use317" />
              <use
                 transform="translate(0.0 -39.503125)scale(0.7)"
                 xlink:href="#Cmr10-32"
                 id="use319" />
              <path
                 d=" M0 13.3734 L0 19.6234 L35 19.6234 L35 13.3734 L0 13.3734 z "
                 id="path321" />
            </g>
          </g>
        </g>
      </g>
      <g
         id="text_10">
        <!-- $n=128$ -->
        <defs
           id="defs324">
          <path
             d=" M7.71875 1.70312 Q7.71875 2.29688 7.8125 2.59375 L15.2812 32.4219 Q16.0156 35.2031 16.0156 37.3125 Q16.0156 41.6094 13.0938 41.6094 Q9.96875 41.6094 8.45312 37.8594 Q6.9375 34.125 5.51562 28.4219 Q5.51562 28.125 5.21875 27.9531 Q4.9375 27.7812 4.6875 27.7812 L3.51562 27.7812 Q3.17188 27.7812 2.92188 28.1406 Q2.6875 28.5156 2.6875 28.8125 Q3.76562 33.1562 4.76562 36.1719 Q5.76562 39.2031 7.89062 41.6875 Q10.0156 44.1875 13.1875 44.1875 Q16.9375 44.1875 19.8125 41.8125 Q22.7031 39.4531 22.7031 35.7969 Q25.6875 39.7031 29.6875 41.9375 Q33.6875 44.1875 38.1875 44.1875 Q41.75 44.1875 44.3281 42.9688 Q46.9219 41.75 48.3594 39.2812 Q49.8125 36.8125 49.8125 33.4062 Q49.8125 29.2969 47.9688 23.4844 Q46.1406 17.6719 43.4062 10.5 Q42 7.23438 42 4.5 Q42 1.51562 44.2812 1.51562 Q48.1875 1.51562 50.7969 5.70312 Q53.4219 9.90625 54.5 14.7031 Q54.6875 15.2812 55.3281 15.2812 L56.5 15.2812 Q56.8906 15.2812 57.1562 15.0312 Q57.4219 14.7969 57.4219 14.4062 Q57.4219 14.3125 57.3281 14.1094 Q55.9531 8.45312 52.5625 3.65625 Q49.1719 -1.125 44.0938 -1.125 Q40.5781 -1.125 38.0781 1.29688 Q35.5938 3.71875 35.5938 7.17188 Q35.5938 9.03125 36.375 11.0781 Q37.6406 14.3594 39.2812 18.8906 Q40.9219 23.4375 41.9688 27.5781 Q43.0156 31.7344 43.0156 34.9062 Q43.0156 37.7031 41.8594 39.6562 Q40.7188 41.6094 37.9844 41.6094 Q34.3281 41.6094 31.25 39.9844 Q28.1719 38.375 25.875 35.7188 Q23.5781 33.0625 21.6875 29.3906 L14.8906 2.20312 Q14.5469 0.828125 13.3438 -0.140625 Q12.1562 -1.125 10.6875 -1.125 Q9.46875 -1.125 8.59375 -0.34375 Q7.71875 0.4375 7.71875 1.70312"
             id="Cmmi10-6e" />
        </defs>
        <g
           style="fill:#ffffff;"
           transform="translate(237.281796875 68.1316015625)scale(0.36 -0.36)"
           id="g327">
          <use
             transform="translate(0.0 0.390625)"
             xlink:href="#Cmmi10-6e"
             id="use329" />
          <use
             transform="translate(77.568359375 0.390625)"
             xlink:href="#Cmr10-3d"
             id="use331" />
          <use
             transform="translate(161.626953125 0.390625)"
             xlink:href="#Cmr10-31"
             id="use333" />
          <use
             transform="translate(211.626953125 0.390625)"
             xlink:href="#Cmr10-32"
             id="use335" />
          <use
             transform="translate(261.626953125 0.390625)"
             xlink:href="#Cmr10-38"
             id="use337" />
        </g>
      </g>
    </g>
  </g>
  <defs
     id="defs339">
    <clipPath
       id="p4e5c5a9609">
      <rect
         height="263.656796875"
         width="527.31359375"
         x="29.785"
         y="73.1316015625"
         id="rect342" />
    </clipPath>
  </defs>
  <path
     inkscape:connector-curvature="0"
     id="path3325"
     d="m 172.79772,287.15097 76.36753,0"
     style="fill:none;stroke:#ffffff;stroke-width:3.20000005;stroke-linecap:butt;stroke-linejoin:miter;stroke-miterlimit:4;stroke-opacity:1;stroke-dasharray:none;marker-start:url(#Arrow1Mstartn);marker-end:url(#Arrow1Mendu)" />
  <g
     transform="matrix(0.8,0,0,0.8,-186.7328,-300.12768)"
     id="g4041"
     style="stroke-linecap:butt;stroke-linejoin:round">
    <text
       xml:space="preserve"
       style="font-size:24px;font-style:normal;font-variant:normal;font-weight:normal;font-stretch:normal;line-height:125%;letter-spacing:0px;word-spacing:0px;fill:#ffffff;fill-opacity:1;stroke:none;font-family:Latin Modern Math;-inkscape-font-specification:Latin Modern Math"
       x="462.35681"
       y="707.40204"
       id="text4725"
       sodipodi:linespacing="125%"><tspan
         sodipodi:role="line"
         id="tspan4727"
         x="462.35681"
         y="707.40204"
         style="font-size:36px;fill:#ffffff;fill-opacity:1">Δ<tspan
   style="font-style:italic;font-variant:normal;font-weight:normal;font-stretch:normal;fill:#ffffff;fill-opacity:1;font-family:Latin Modern Roman Unslanted;-inkscape-font-specification:Latin Modern Roman Unslanted"
   id="tspan3255">p</tspan></tspan></text>
    <text
       xml:space="preserve"
       style="font-size:36px;font-style:normal;font-variant:normal;font-weight:normal;font-stretch:normal;line-height:125%;letter-spacing:0px;word-spacing:0px;fill:#ffffff;fill-opacity:1;stroke:none;font-family:Latin Modern Math;-inkscape-font-specification:Latin Modern Math"
       x="490.89285"
       y="707.89789"
       id="text3257"
       sodipodi:linespacing="125%"><tspan
         sodipodi:role="line"
         id="tspan3259"
         x="490.89285"
         y="707.89789"
         style="font-style:italic;font-variant:normal;font-weight:normal;font-stretch:normal;fill:#ffffff;fill-opacity:1;font-family:Latin Modern Roman Unslanted;-inkscape-font-specification:Latin Modern Roman Unslanted">^</tspan></text>
  </g>
</svg>
