<?xml version="1.0" encoding="UTF-8" standalone="no"?>
<!-- Created with matplotlib (http://matplotlib.org/) -->

<svg
   xmlns:dc="http://purl.org/dc/elements/1.1/"
   xmlns:cc="http://creativecommons.org/ns#"
   xmlns:rdf="http://www.w3.org/1999/02/22-rdf-syntax-ns#"
   xmlns:svg="http://www.w3.org/2000/svg"
   xmlns="http://www.w3.org/2000/svg"
   xmlns:xlink="http://www.w3.org/1999/xlink"
   xmlns:sodipodi="http://sodipodi.sourceforge.net/DTD/sodipodi-0.dtd"
   xmlns:inkscape="http://www.inkscape.org/namespaces/inkscape"
   height="432pt"
   version="1.1"
   viewBox="0 0 576 432"
   width="576pt"
   id="svg2"
   inkscape:version="0.48.4 r9939"
   sodipodi:docname="eigvals.svg">
  <metadata
     id="metadata254">
    <rdf:RDF>
      <cc:Work
         rdf:about="">
        <dc:format>image/svg+xml</dc:format>
        <dc:type
           rdf:resource="http://purl.org/dc/dcmitype/StillImage" />
        <dc:title></dc:title>
      </cc:Work>
    </rdf:RDF>
  </metadata>
  <sodipodi:namedview
     pagecolor="#a0a0a0"
     bordercolor="#666666"
     borderopacity="1"
     objecttolerance="10"
     gridtolerance="10"
     guidetolerance="10"
     inkscape:pageopacity="1"
     inkscape:pageshadow="2"
     inkscape:window-width="1920"
     inkscape:window-height="1058"
     id="namedview252"
     showgrid="false"
     inkscape:zoom="1.2361274"
     inkscape:cx="245.91113"
     inkscape:cy="278.41162"
     inkscape:window-x="0"
     inkscape:window-y="0"
     inkscape:window-maximized="1"
     inkscape:current-layer="svg2" />
  <defs
     id="defs4">
    <style
       type="text/css"
       id="style6">
*{stroke-linecap:butt;stroke-linejoin:round;stroke-miterlimit:100000;}
  </style>
  </defs>
  <g
     id="figure_1">
    <g
       id="patch_1">
      <path
         d="M 0 432  L 576 432  L 576 0  L 0 0  L 0 432  z "
         style="fill:none;"
         id="path10" />
    </g>
    <g
       id="axes_1">
      <g
         id="patch_2">
        <path
           d="M 72 388.8  L 274.909091 388.8  L 274.909091 43.2  L 72 43.2  L 72 388.8  z "
           style="fill:none;"
           id="path14" />
      </g>
      <g
         id="patch_3">
        <path
           clip-path="url(#p0171acc18e)"
           d="M 95.871658 388.8  L 131.679144 388.8  L 131.679144 222.912  L 95.871658 222.912  z "
           style="fill:#7fc97f;"
           id="path17" />
      </g>
      <g
         id="patch_4">
        <path
           clip-path="url(#p0171acc18e)"
           d="M 155.550802 388.8  L 191.358289 388.8  L 191.358289 305.856  L 155.550802 305.856  z "
           style="fill:#7fc97f;"
           id="path20" />
      </g>
      <g
         id="patch_5">
        <path
           clip-path="url(#p0171acc18e)"
           d="M 215.229947 388.8  L 251.037433 388.8  L 251.037433 361.152  L 215.229947 361.152  z "
           style="fill:#7fc97f;"
           id="path23" />
      </g>
      <g
         id="patch_6">
        <path
           d="M 72 388.8  L 274.909091 388.8  "
           style="fill:none;stroke:#ffffff;stroke-linecap:square;stroke-linejoin:miter;"
           id="path26" />
      </g>
      <g
         id="patch_7">
        <path
           d="M 72 43.2  L 274.909091 43.2  "
           style="fill:none;stroke:#ffffff;stroke-linecap:square;stroke-linejoin:miter;"
           id="path29" />
      </g>
      <g
         id="patch_8">
        <path
           d="M 274.909091 388.8  L 274.909091 43.2  "
           style="fill:none;stroke:#ffffff;stroke-linecap:square;stroke-linejoin:miter;"
           id="path32" />
      </g>
      <g
         id="patch_9">
        <path
           d="M 72 388.8  L 72 43.2  "
           style="fill:none;stroke:#ffffff;stroke-linecap:square;stroke-linejoin:miter;"
           id="path35" />
      </g>
      <g
         id="matplotlib.axis_1">
        <g
           id="xtick_1">
          <g
             id="line2d_1">
            <defs
               id="defs40">
              <path
                 d="M 0 0  L 0 -4  "
                 id="m1f5b738251"
                 style="stroke:#ffffff;stroke-width:0.5;" />
            </defs>
            <g
               id="g43">
              <use
                 style="fill:#ffffff;stroke:#ffffff;stroke-width:0.5;"
                 x="113.77540107"
                 xlink:href="#m1f5b738251"
                 y="388.8"
                 id="use45" />
            </g>
          </g>
          <g
             id="line2d_2">
            <defs
               id="defs48">
              <path
                 d="M 0 0  L 0 4  "
                 id="m82c5126dbd"
                 style="stroke:#ffffff;stroke-width:0.5;" />
            </defs>
            <g
               id="g51">
              <use
                 style="fill:#ffffff;stroke:#ffffff;stroke-width:0.5;"
                 x="113.77540107"
                 xlink:href="#m82c5126dbd"
                 y="43.2"
                 id="use53" />
            </g>
          </g>
          <g
             id="text_1">
            <!-- $\lambda^1$ -->
            <defs
               id="defs56">
              <path
                 d="M 5.078125 1.703125  Q 5.078125 3.171875 6.390625 4.5  L 34.515625 32.078125  L 24.609375 59.90625  Q 23.4375 63.09375 22.140625 64.9375  Q 20.84375 66.796875 18.40625 66.796875  Q 17.28125 66.796875 17.28125 68.109375  Q 17.390625 68.703125 17.78125 69.046875  Q 18.171875 69.390625 18.796875 69.390625  Q 29.296875 69.390625 31.5 63.1875  L 51.8125 6.5  Q 53.125 2.25 54.5 0.78125  Q 54.984375 0.046875 54.984375 -0.203125  Q 54.984375 -1.125 54.203125 -1.125  L 48.78125 -1.125  Q 46.296875 -0.390625 44.828125 3.21875  L 35.6875 28.8125  L 11.53125 0.390625  Q 9.71875 -1.3125 8.296875 -1.3125  Q 7.03125 -1.3125 6.046875 -0.4375  Q 5.078125 0.4375 5.078125 1.703125  "
                 id="Cmmi10-b8" />
              <path
                 d="M 9.28125 0  L 9.28125 3.515625  Q 21.78125 3.515625 21.78125 6.6875  L 21.78125 59.1875  Q 16.609375 56.6875 8.6875 56.6875  L 8.6875 60.203125  Q 20.953125 60.203125 27.203125 66.609375  L 28.609375 66.609375  Q 28.953125 66.609375 29.265625 66.328125  Q 29.59375 66.0625 29.59375 65.71875  L 29.59375 6.6875  Q 29.59375 3.515625 42.09375 3.515625  L 42.09375 0  z "
                 id="Cmr10-31" />
            </defs>
            <g
               style="fill:#ffffff;"
               transform="translate(100.33540107 411.03625)scale(0.24 -0.24)"
               id="g60">
              <use
                 transform="translate(0.0 0.109375)"
                 xlink:href="#Cmmi10-b8"
                 id="use62" />
              <use
                 transform="translate(69.89671874999999 38.3734375)scale(0.7)"
                 xlink:href="#Cmr10-31"
                 id="use64" />
            </g>
          </g>
        </g>
        <g
           id="xtick_2">
          <g
             id="line2d_3">
            <g
               id="g68">
              <use
                 style="fill:#ffffff;stroke:#ffffff;stroke-width:0.5;"
                 x="173.454545455"
                 xlink:href="#m1f5b738251"
                 y="388.8"
                 id="use70" />
            </g>
          </g>
          <g
             id="line2d_4">
            <g
               id="g73">
              <use
                 style="fill:#ffffff;stroke:#ffffff;stroke-width:0.5;"
                 x="173.454545455"
                 xlink:href="#m82c5126dbd"
                 y="43.2"
                 id="use75" />
            </g>
          </g>
          <g
             id="text_2">
            <!-- $\lambda^2$ -->
            <defs
               id="defs78">
              <path
                 d="M 4.984375 0  L 4.984375 2.6875  Q 4.984375 2.9375 5.171875 3.21875  L 20.703125 20.40625  Q 24.21875 24.21875 26.40625 26.796875  Q 28.609375 29.390625 30.75 32.765625  Q 32.90625 36.140625 34.15625 39.625  Q 35.40625 43.109375 35.40625 47.015625  Q 35.40625 51.125 33.890625 54.859375  Q 32.375 58.59375 29.375 60.84375  Q 26.375 63.09375 22.125 63.09375  Q 17.78125 63.09375 14.3125 60.46875  Q 10.84375 57.859375 9.421875 53.71875  Q 9.8125 53.8125 10.5 53.8125  Q 12.75 53.8125 14.328125 52.296875  Q 15.921875 50.78125 15.921875 48.390625  Q 15.921875 46.09375 14.328125 44.5  Q 12.75 42.921875 10.5 42.921875  Q 8.15625 42.921875 6.5625 44.546875  Q 4.984375 46.1875 4.984375 48.390625  Q 4.984375 52.15625 6.390625 55.4375  Q 7.8125 58.734375 10.46875 61.296875  Q 13.140625 63.875 16.484375 65.234375  Q 19.828125 66.609375 23.578125 66.609375  Q 29.296875 66.609375 34.21875 64.1875  Q 39.15625 61.765625 42.03125 57.34375  Q 44.921875 52.9375 44.921875 47.015625  Q 44.921875 42.671875 43.015625 38.765625  Q 41.109375 34.859375 38.125 31.65625  Q 35.15625 28.46875 30.515625 24.40625  Q 25.875 20.359375 24.421875 19  L 13.09375 8.109375  L 22.703125 8.109375  Q 29.78125 8.109375 34.546875 8.21875  Q 39.3125 8.34375 39.59375 8.59375  Q 40.765625 9.859375 42 17.828125  L 44.921875 17.828125  L 42.09375 0  z "
                 id="Cmr10-32" />
            </defs>
            <g
               style="fill:#ffffff;"
               transform="translate(160.014545455 411.03625)scale(0.24 -0.24)"
               id="g81">
              <use
                 transform="translate(0.0 0.109375)"
                 xlink:href="#Cmmi10-b8"
                 id="use83" />
              <use
                 transform="translate(69.89671874999999 38.3734375)scale(0.7)"
                 xlink:href="#Cmr10-32"
                 id="use85" />
            </g>
          </g>
        </g>
        <g
           id="xtick_3">
          <g
             id="line2d_5">
            <g
               id="g89">
              <use
                 style="fill:#ffffff;stroke:#ffffff;stroke-width:0.5;"
                 x="233.13368984"
                 xlink:href="#m1f5b738251"
                 y="388.8"
                 id="use91" />
            </g>
          </g>
          <g
             id="line2d_6">
            <g
               id="g94">
              <use
                 style="fill:#ffffff;stroke:#ffffff;stroke-width:0.5;"
                 x="233.13368984"
                 xlink:href="#m82c5126dbd"
                 y="43.2"
                 id="use96" />
            </g>
          </g>
          <g
             id="text_3">
            <!-- $\lambda^3$ -->
            <defs
               id="defs99">
              <path
                 d="M 9.515625 7.71875  Q 11.859375 4.296875 15.8125 2.640625  Q 19.78125 0.984375 24.3125 0.984375  Q 30.125 0.984375 32.5625 5.9375  Q 35.015625 10.890625 35.015625 17.1875  Q 35.015625 20.015625 34.5 22.84375  Q 33.984375 25.6875 32.765625 28.125  Q 31.546875 30.5625 29.421875 32.03125  Q 27.296875 33.5 24.21875 33.5  L 17.578125 33.5  Q 16.703125 33.5 16.703125 34.421875  L 16.703125 35.296875  Q 16.703125 36.078125 17.578125 36.078125  L 23.09375 36.53125  Q 26.609375 36.53125 28.921875 39.15625  Q 31.25 41.796875 32.328125 45.578125  Q 33.40625 49.359375 33.40625 52.78125  Q 33.40625 57.5625 31.15625 60.640625  Q 28.90625 63.71875 24.3125 63.71875  Q 20.515625 63.71875 17.046875 62.28125  Q 13.578125 60.84375 11.53125 57.90625  Q 11.71875 57.953125 11.859375 57.984375  Q 12.015625 58.015625 12.203125 58.015625  Q 14.453125 58.015625 15.96875 56.453125  Q 17.484375 54.890625 17.484375 52.6875  Q 17.484375 50.53125 15.96875 48.96875  Q 14.453125 47.40625 12.203125 47.40625  Q 10.015625 47.40625 8.453125 48.96875  Q 6.890625 50.53125 6.890625 52.6875  Q 6.890625 56.984375 9.46875 60.15625  Q 12.0625 63.328125 16.140625 64.96875  Q 20.21875 66.609375 24.3125 66.609375  Q 27.34375 66.609375 30.703125 65.703125  Q 34.078125 64.796875 36.8125 63.109375  Q 39.546875 61.421875 41.28125 58.78125  Q 43.015625 56.15625 43.015625 52.78125  Q 43.015625 48.578125 41.140625 45.015625  Q 39.265625 41.453125 35.984375 38.859375  Q 32.71875 36.28125 28.8125 35.015625  Q 33.15625 34.1875 37.0625 31.734375  Q 40.96875 29.296875 43.328125 25.484375  Q 45.703125 21.6875 45.703125 17.28125  Q 45.703125 11.765625 42.671875 7.296875  Q 39.65625 2.828125 34.71875 0.3125  Q 29.78125 -2.203125 24.3125 -2.203125  Q 19.625 -2.203125 14.90625 -0.40625  Q 10.203125 1.375 7.203125 4.9375  Q 4.203125 8.5 4.203125 13.484375  Q 4.203125 15.96875 5.859375 17.625  Q 7.515625 19.28125 10.015625 19.28125  Q 11.625 19.28125 12.96875 18.53125  Q 14.3125 17.78125 15.0625 16.40625  Q 15.828125 15.046875 15.828125 13.484375  Q 15.828125 11.03125 14.109375 9.375  Q 12.40625 7.71875 10.015625 7.71875  z "
                 id="Cmr10-33" />
            </defs>
            <g
               style="fill:#ffffff;"
               transform="translate(219.69368984 411.03625)scale(0.24 -0.24)"
               id="g102">
              <use
                 transform="translate(0.0 0.109375)"
                 xlink:href="#Cmmi10-b8"
                 id="use104" />
              <use
                 transform="translate(69.89671874999999 38.3734375)scale(0.7)"
                 xlink:href="#Cmr10-33"
                 id="use106" />
            </g>
          </g>
        </g>
      </g>
      <g
         id="matplotlib.axis_2">
        <g
           id="ytick_1">
          <g
             id="line2d_7">
            <defs
               id="defs111">
              <path
                 d="M 0 0  L 4 0  "
                 id="m8350e8709a"
                 style="stroke:#ffffff;stroke-width:0.5;" />
            </defs>
            <g
               id="g114">
              <use
                 style="fill:#ffffff;stroke:#ffffff;stroke-width:0.5;"
                 x="72.0"
                 xlink:href="#m8350e8709a"
                 y="250.56"
                 id="use116" />
            </g>
          </g>
          <g
             id="text_4">
            <!-- $\frac{1}{2}$ -->
            <g
               style="fill:#ffffff;"
               transform="translate(56.48 255.84)scale(0.24 -0.24)"
               id="g119">
              <use
                 transform="translate(0.0 38.3734375)scale(0.7)"
                 xlink:href="#Cmr10-31"
                 id="use121" />
              <use
                 transform="translate(0.0 -39.503125)scale(0.7)"
                 xlink:href="#Cmr10-32"
                 id="use123" />
              <path
                 d="M 0 13.373437  L 0 19.623437  L 35 19.623437  L 35 13.373437  L 0 13.373437  z "
                 id="path125" />
            </g>
          </g>
        </g>
        <g
           id="ytick_2">
          <g
             id="line2d_8">
            <g
               id="g129">
              <use
                 style="fill:#ffffff;stroke:#ffffff;stroke-width:0.5;"
                 x="72.0"
                 xlink:href="#m8350e8709a"
                 y="112.32"
                 id="use131" />
            </g>
          </g>
          <g
             id="text_5">
            <!-- $1$ -->
            <g
               style="fill:#ffffff;"
               transform="translate(56.0 118.9425)scale(0.24 -0.24)"
               id="g134">
              <use
                 transform="translate(0.0 0.390625)"
                 xlink:href="#Cmr10-31"
                 id="use136" />
            </g>
          </g>
        </g>
      </g>
    </g>
    <g
       id="axes_2">
      <g
         id="patch_10">
        <path
           d="M 315.490909 388.8  L 518.4 388.8  L 518.4 43.2  L 315.490909 43.2  L 315.490909 388.8  z "
           style="fill:none;"
           id="path140" />
      </g>
      <g
         id="patch_11">
        <path
           clip-path="url(#p3596b2f949)"
           d="M 339.362567 388.8  L 375.170053 388.8  L 375.170053 283.7376  L 339.362567 283.7376  z "
           style="fill:#beaed4;"
           id="path143" />
      </g>
      <g
         id="patch_12">
        <path
           clip-path="url(#p3596b2f949)"
           d="M 399.041711 388.8  L 434.849198 388.8  L 434.849198 300.3264  L 399.041711 300.3264  z "
           style="fill:#beaed4;"
           id="path146" />
      </g>
      <g
         id="patch_13">
        <path
           clip-path="url(#p3596b2f949)"
           d="M 458.720856 388.8  L 494.528342 388.8  L 494.528342 305.856  L 458.720856 305.856  z "
           style="fill:#beaed4;"
           id="path149" />
      </g>
      <g
         id="patch_14">
        <path
           d="M 315.490909 388.8  L 518.4 388.8  "
           style="fill:none;stroke:#ffffff;stroke-linecap:square;stroke-linejoin:miter;"
           id="path152" />
      </g>
      <g
         id="patch_15">
        <path
           d="M 315.490909 43.2  L 518.4 43.2  "
           style="fill:none;stroke:#ffffff;stroke-linecap:square;stroke-linejoin:miter;"
           id="path155" />
      </g>
      <g
         id="patch_16">
        <path
           d="M 518.4 388.8  L 518.4 43.2  "
           style="fill:none;stroke:#ffffff;stroke-linecap:square;stroke-linejoin:miter;"
           id="path158" />
      </g>
      <g
         id="patch_17">
        <path
           d="M 315.490909 388.8  L 315.490909 43.2  "
           style="fill:none;stroke:#ffffff;stroke-linecap:square;stroke-linejoin:miter;"
           id="path161" />
      </g>
      <g
         id="matplotlib.axis_3">
        <g
           id="xtick_4">
          <g
             id="line2d_9">
            <g
               id="g166">
              <use
                 style="fill:#ffffff;stroke:#ffffff;stroke-width:0.5;"
                 x="357.26631016"
                 xlink:href="#m1f5b738251"
                 y="388.8"
                 id="use168" />
            </g>
          </g>
          <g
             id="line2d_10">
            <g
               id="g171">
              <use
                 style="fill:#ffffff;stroke:#ffffff;stroke-width:0.5;"
                 x="357.26631016"
                 xlink:href="#m82c5126dbd"
                 y="43.2"
                 id="use173" />
            </g>
          </g>
          <g
             id="text_6">
            <!-- $\lambda^1$ -->
            <g
               style="fill:#ffffff;"
               transform="translate(343.82631016 411.03625)scale(0.24 -0.24)"
               id="g176">
              <use
                 transform="translate(0.0 0.109375)"
                 xlink:href="#Cmmi10-b8"
                 id="use178" />
              <use
                 transform="translate(69.89671874999999 38.3734375)scale(0.7)"
                 xlink:href="#Cmr10-31"
                 id="use180" />
            </g>
          </g>
        </g>
        <g
           id="xtick_5">
          <g
             id="line2d_11">
            <g
               id="g184">
              <use
                 style="fill:#ffffff;stroke:#ffffff;stroke-width:0.5;"
                 x="416.945454545"
                 xlink:href="#m1f5b738251"
                 y="388.8"
                 id="use186" />
            </g>
          </g>
          <g
             id="line2d_12">
            <g
               id="g189">
              <use
                 style="fill:#ffffff;stroke:#ffffff;stroke-width:0.5;"
                 x="416.945454545"
                 xlink:href="#m82c5126dbd"
                 y="43.2"
                 id="use191" />
            </g>
          </g>
          <g
             id="text_7">
            <!-- $\lambda^2$ -->
            <g
               style="fill:#ffffff;"
               transform="translate(403.505454545 411.03625)scale(0.24 -0.24)"
               id="g194">
              <use
                 transform="translate(0.0 0.109375)"
                 xlink:href="#Cmmi10-b8"
                 id="use196" />
              <use
                 transform="translate(69.89671874999999 38.3734375)scale(0.7)"
                 xlink:href="#Cmr10-32"
                 id="use198" />
            </g>
          </g>
        </g>
        <g
           id="xtick_6">
          <g
             id="line2d_13">
            <g
               id="g202">
              <use
                 style="fill:#ffffff;stroke:#ffffff;stroke-width:0.5;"
                 x="476.62459893"
                 xlink:href="#m1f5b738251"
                 y="388.8"
                 id="use204" />
            </g>
          </g>
          <g
             id="line2d_14">
            <g
               id="g207">
              <use
                 style="fill:#ffffff;stroke:#ffffff;stroke-width:0.5;"
                 x="476.62459893"
                 xlink:href="#m82c5126dbd"
                 y="43.2"
                 id="use209" />
            </g>
          </g>
          <g
             id="text_8">
            <!-- $\lambda^3$ -->
            <g
               style="fill:#ffffff;"
               transform="translate(463.18459893 411.03625)scale(0.24 -0.24)"
               id="g212">
              <use
                 transform="translate(0.0 0.109375)"
                 xlink:href="#Cmmi10-b8"
                 id="use214" />
              <use
                 transform="translate(69.89671874999999 38.3734375)scale(0.7)"
                 xlink:href="#Cmr10-33"
                 id="use216" />
            </g>
          </g>
        </g>
      </g>
      <g
         id="matplotlib.axis_4">
        <g
           id="ytick_3">
          <g
             id="line2d_15">
            <g
               id="g221">
              <use
                 style="fill:#ffffff;stroke:#ffffff;stroke-width:0.5;"
                 x="315.490909091"
                 xlink:href="#m8350e8709a"
                 y="250.56"
                 id="use223" />
            </g>
          </g>
          <g
             id="line2d_16">
            <defs
               id="defs226">
              <path
                 d="M 0 0  L -4 0  "
                 id="m6403dd52f2"
                 style="stroke:#ffffff;stroke-width:0.5;" />
            </defs>
            <g
               id="g229">
              <use
                 style="fill:#ffffff;stroke:#ffffff;stroke-width:0.5;"
                 x="518.4"
                 xlink:href="#m6403dd52f2"
                 y="250.56"
                 id="use231" />
            </g>
          </g>
        </g>
        <g
           id="ytick_4">
          <g
             id="line2d_17">
            <g
               id="g235">
              <use
                 style="fill:#ffffff;stroke:#ffffff;stroke-width:0.5;"
                 x="315.490909091"
                 xlink:href="#m8350e8709a"
                 y="112.32"
                 id="use237" />
            </g>
          </g>
          <g
             id="line2d_18">
            <g
               id="g240">
              <use
                 style="fill:#ffffff;stroke:#ffffff;stroke-width:0.5;"
                 x="518.4"
                 xlink:href="#m6403dd52f2"
                 y="112.32"
                 id="use242" />
            </g>
          </g>
        </g>
      </g>
    </g>
  </g>
  <defs
     id="defs244">
    <clipPath
       id="p3596b2f949">
      <rect
         height="345.6"
         width="202.909090909"
         x="315.490909091"
         y="43.2"
         id="rect247" />
    </clipPath>
    <clipPath
       id="p0171acc18e">
      <rect
         height="345.6"
         width="202.909090909"
         x="72.0"
         y="43.2"
         id="rect250" />
    </clipPath>
  </defs>
  <text
     xml:space="preserve"
     style="font-size:19.20000076000000178px;font-style:normal;font-variant:normal;font-weight:normal;font-stretch:normal;line-height:125%;letter-spacing:0px;word-spacing:0px;fill:#7fc97f;fill-opacity:0.94117647;stroke:none;font-family:Latin Modern Roman Unslanted;-inkscape-font-specification:Latin Modern Roman Unslanted"
     x="165.03152"
     y="27.51095"
     id="text3231"
     sodipodi:linespacing="125%"><tspan
       sodipodi:role="line"
       id="tspan3233"
       x="165.03152"
       y="27.51095"
       style="font-size:28.79999923999999822px;font-style:italic;fill:#7fc97f;fill-opacity:0.94117647">ρ</tspan></text>
  <text
     xml:space="preserve"
     style="font-size:19.20000076px;font-style:normal;font-variant:normal;font-weight:normal;font-stretch:normal;line-height:125%;letter-spacing:0px;word-spacing:0px;fill:#000000;fill-opacity:1;stroke:none;font-family:Latin Modern Roman Unslanted;-inkscape-font-specification:Latin Modern Roman Unslanted"
     x="407.07779"
     y="27.510952"
     id="text4003"
     sodipodi:linespacing="125%"><tspan
       sodipodi:role="line"
       id="tspan4005"
       x="407.07779"
       y="27.510952"
       style="font-size:28.79999924px;font-style:italic;fill:#beaed4;fill-opacity:1;-inkscape-font-specification:Latin Modern Roman Unslanted Italic">σ</tspan></text>
</svg>
